
<svg width="38px" height="37px" viewBox="0 0 38 37" version="1.1" xmlns="http://www.w3.org/2000/svg" xmlns:xlink="http://www.w3.org/1999/xlink">
    <g id="Page-1" stroke="none" stroke-width="1" fill="none" fill-rule="evenodd">
        <g id="shop--about" transform="translate(-215.000000, -587.000000)" fill="#000000">
            <g id="header" transform="translate(0.000000, 81.000000)">
                <g id="biking" transform="translate(215.333333, 506.000000)">
                    <path d="M8.99365714,24.9054969 C8.99365714,23.1693431 10.4833714,21.7610662 12.3188,21.7610662 L12.3622286,21.7610662 C12.8530857,21.7667585 13.3182286,21.8743431 13.7365143,22.0610508 L12.2685143,24.3362662 C11.9576571,24.3607431 11.7142286,24.6060815 11.7142286,24.9054969 C11.7142286,25.22142 11.9845143,25.4775738 12.3188,25.4775738 C12.5348,25.4775738 12.7239429,25.36942 12.8308,25.2088969 L14.5496571,25.2088969 L14.4513714,25.8566815 L14.1805143,26.9700969 L14.7502286,27.0486508 C14.1433714,27.6645585 13.2788,28.0499277 12.3188,28.0499277 C10.4833714,28.0499277 8.99365714,26.6416508 8.99365714,24.9054969 Z M14.8953714,22.9194508 L14.6410857,24.6026662 L12.8308,24.6026662 C12.8290857,24.59982 12.8273714,24.5969738 12.8250857,24.5941277 L14.2673714,22.3587585 C14.5016571,22.5198508 14.7130857,22.7082662 14.8953714,22.9194508 Z M15.0050857,22.1965277 C14.8725143,22.0786969 14.7325143,21.9688354 14.5833714,21.86922 L14.9319429,21.3295892 L15.0645143,21.8031892 L15.0050857,22.1965277 Z M16.3628,24.6026662 L16.7782286,22.9524662 L17.1125143,23.94122 C16.8628,24.0909277 16.6753714,24.3254508 16.5953714,24.6026662 L16.3628,24.6026662 Z M17.3090857,22.6245892 L17.0525143,21.8646662 L16.6182286,19.2906046 L18.2879429,19.2906046 L18.7010857,19.5513123 L17.3090857,22.6245892 Z M17.5205143,23.2484662 L19.1868,23.3201892 L18.4285143,23.9526046 C18.2365143,23.8324969 18.0068,23.7619123 17.7599429,23.7619123 C17.7382286,23.7619123 17.7170857,23.7641892 17.6953714,23.7653277 L17.5205143,23.2484662 Z M19.5879429,22.9854815 L19.0770857,22.4800046 L20.5736571,19.2906046 L23.0268,19.2906046 C23.0890857,19.5006508 23.1553714,19.7226508 23.2239429,19.95262 L19.5879429,22.9854815 Z M17.3268,18.6843738 L16.5159429,18.6843738 L16.4193714,18.1117277 L17.3268,18.6843738 Z M22.8450857,18.6843738 L20.5193714,18.6843738 L16.9879429,15.8023585 L18.5850857,13.2880662 L20.7725143,16.4757585 C20.6919429,16.4763277 20.6062286,16.4774662 20.5153714,16.4780354 L20.5216571,17.0842662 C21.0690857,17.0791431 21.8765143,17.0745892 22.0079429,17.08142 C22.3353714,17.1468815 22.3445143,17.1656662 22.4936571,17.5185892 C22.5176571,17.59202 22.6513714,18.0365892 22.8450857,18.6843738 Z M23.8245143,21.9694046 C24.1022286,22.9029431 24.3730857,23.8131431 24.5793714,24.5087431 C24.4748,24.6112046 24.4102286,24.7512354 24.4102286,24.9049277 C24.4102286,25.2208508 24.6805143,25.4770046 25.0148,25.4770046 C25.3485143,25.4770046 25.6193714,25.22142 25.6193714,24.9049277 C25.6193714,24.6396662 25.4279429,24.4170969 25.1679429,24.3527738 C24.9176571,23.5114508 24.6593714,22.6416662 24.4130857,21.8128662 C24.6085143,21.7792815 24.8090857,21.7610662 25.0148,21.7610662 L25.0576571,21.7610662 C26.8730857,21.7832662 28.3393714,23.1835738 28.3393714,24.9054969 C28.3393714,26.6416508 26.8496571,28.0499277 25.0142286,28.0499277 C23.1788,28.0499277 21.6896571,26.6416508 21.6896571,24.9054969 C21.6896571,23.5660969 22.5765143,22.4225123 23.8245143,21.9694046 Z M8.38908571,24.9054969 C8.38908571,26.9570046 10.1496571,28.6214354 12.3188,28.6214354 C13.5988,28.6214354 14.7353714,28.0419585 15.4530857,27.14542 L17.5628,27.4362969 L17.6153714,26.9598508 L16.0850857,25.9608508 C16.1610857,25.7194969 16.2125143,25.4673277 16.2342286,25.2083277 L16.5953714,25.2083277 C16.7359429,25.6927431 17.2033714,26.0490815 17.7599429,26.0490815 C18.4279429,26.0490815 18.9690857,25.5367738 18.9690857,24.9049277 C18.9690857,24.7227738 18.9228,24.5508662 18.8422286,24.3977431 L23.4125143,20.5856046 C23.4936571,20.8576969 23.5770857,21.13662 23.6599429,21.4161123 C22.1576571,21.9386662 21.0845143,23.3042508 21.0845143,24.9054969 C21.0845143,26.9570046 22.8450857,28.6214354 25.0142286,28.6214354 C27.1833714,28.6214354 28.9439429,26.9570046 28.9439429,24.9054969 C28.9439429,22.8704969 27.2108,21.2151738 25.0650857,21.1895585 C25.0485143,21.1889892 25.0313714,21.1895585 25.0142286,21.1895585 C24.7519429,21.1895585 24.4965143,21.2140354 24.2479429,21.2607123 C23.6073714,19.1061738 23.0828,17.3512354 23.0582286,17.2926046 C22.8679429,16.8417738 22.7473714,16.6169277 22.1422286,16.4905585 L18.6742286,10.2341431 L17.0616571,9.49869692 L13.5096571,16.23782 L14.7130857,20.5474662 L14.0530857,21.5703738 C13.5445143,21.3330046 12.9730857,21.1963892 12.3690857,21.1895585 C12.3525143,21.1889892 12.3359429,21.1895585 12.3188,21.1895585 C10.1496571,21.1895585 8.38908571,22.8539892 8.38908571,24.9054969 Z" id="Fill-13"></path>
                    <path d="M18.5572571,6.11758 C19.5521143,6.04699538 20.4526857,6.75511846 20.5235429,7.67556462 C20.6184,8.59601077 19.8601143,9.42253385 18.8412571,9.49368769 C17.8224,9.56427231 16.9458286,8.88005692 16.8749714,7.93513385 C16.8035429,6.99078 17.5384,6.18873385 18.5572571,6.11758" id="Fill-15"></path>
                    <path d="M18.6666286,1.70769231 C9.35691429,1.70769231 1.80948571,9.22609231 1.80948571,18.5 C1.80948571,27.7739077 9.35691429,35.2923077 18.6666286,35.2923077 C27.9763429,35.2923077 35.5237714,27.7739077 35.5237714,18.5 C35.5140571,9.23007692 27.9723429,1.71736923 18.6666286,1.70769231 M18.6666286,37 C8.41005714,37 0.0952,28.7171231 0.0952,18.5 C0.0952,8.28287692 8.41005714,0 18.6666286,0 C28.9232,0 37.2380571,8.28287692 37.2380571,18.5 C37.2260571,28.712 28.9180571,36.9874769 18.6666286,37" id="Fill-45"></path>
                </g>
            </g>
        </g>
    </g>
</svg>