
<svg width="38px" height="37px" viewBox="0 0 38 37" version="1.1" xmlns="http://www.w3.org/2000/svg" xmlns:xlink="http://www.w3.org/1999/xlink">
    <g id="Page-1" stroke="none" stroke-width="1" fill="none" fill-rule="evenodd">
        <g id="shop--about" transform="translate(-486.000000, -587.000000)" fill="#000000">
            <g id="header" transform="translate(0.000000, 81.000000)">
                <g id="kids" transform="translate(486.000000, 506.000000)">
                    <path d="M17.4266857,14.58318 C17.7889714,14.3423954 19.4569714,14.1739031 19.9398286,14.2222877 C20.5684,14.2701031 21.5832571,14.6315646 21.9215429,15.0886569 L23.3226857,17.5909954 L25.4004,18.5057492 C25.6181143,18.6503338 25.7632571,18.9144569 25.7386857,19.1791492 C25.6906857,19.6129031 25.3038286,19.92598 24.8444,19.9015031 C24.7004,19.9015031 24.5792571,19.8292108 24.4586857,19.7813954 L22.1386857,18.7220569 C22.0661143,18.6509031 21.9941143,18.5786108 21.9215429,18.4818415 L21.2209714,17.1817185 L20.3752571,19.92598 L23.2015429,22.1146723 C23.2741143,22.2353492 23.3226857,22.3554569 23.3466857,22.5000415 L24.2409714,25.4355646 L24.2409714,25.6763492 C24.1924,26.3264108 24.0718286,26.80798 23.3712571,26.7595954 C22.7912571,26.71178 22.5981143,26.3264108 22.4775429,25.8209338 L21.3901143,22.9332262 L19.1912571,21.3934569 L17.5964,23.1017185 C17.5718286,23.2223954 17.4026857,23.4870877 17.3546857,23.5832877 L15.2284,25.9171338 C14.9626857,26.2780262 14.5518286,26.5188108 14.0444,26.4949031 C13.3438286,26.4465185 13.0541143,26.1334415 13.1266857,25.48338 C13.1506857,25.2915492 13.2232571,25.0991492 13.2958286,24.9784723 L16.1712571,21.4885185 L17.4512571,16.6284262 L16.1466857,17.6154723 L15.7592571,19.3049492 C15.6626857,19.6903185 15.5421143,19.9789185 15.1066857,19.9550108 C14.6478286,19.9311031 14.2855429,19.5457338 14.3341143,19.1125492 C14.3341143,19.0880723 14.3341143,19.0402569 14.3581143,19.01578 L14.8666857,16.8453031 C14.9146857,16.7007185 15.0106857,16.5806108 15.1318286,16.4599338 L17.4266857,14.58318 Z" id="Fill-27"></path>
                    <path d="M20.2302286,13.6843077 C21.2690857,13.7560308 22.1633714,13.0581538 22.2359429,12.0955846 C22.3079429,11.1330154 21.5588,10.3144615 20.5199429,10.2421692 C19.5050857,10.1698769 18.5868,10.8922308 18.5148,11.8303231 C18.4176571,12.7695538 19.1913714,13.6120154 20.2302286,13.6843077" id="Fill-29"></path>
                    <path d="M19.4283429,1.70769231 C10.1186286,1.70769231 2.5712,9.22609231 2.5712,18.5 C2.5712,27.7739077 10.1186286,35.2923077 19.4283429,35.2923077 C28.7386286,35.2923077 36.2854857,27.7739077 36.2854857,18.5 C36.2757714,9.23007692 28.7346286,1.71736923 19.4283429,1.70769231 M19.4283429,37 C9.17177143,37 0.856914286,28.7171231 0.856914286,18.5 C0.856914286,8.28287692 9.17177143,0 19.4283429,0 C29.6849143,0 37.9997714,8.28287692 37.9997714,18.5 C37.9877714,28.712 29.6797714,36.9874769 19.4283429,37" id="Fill-54"></path>
                </g>
            </g>
        </g>
    </g>
</svg>