
<svg width="38px" height="37px" viewBox="0 0 38 37" version="1.1" xmlns="http://www.w3.org/2000/svg" xmlns:xlink="http://www.w3.org/1999/xlink">
    <defs>
        <polygon id="path-1" points="0 0 37.1426286 0 37.1426286 37 0 37"></polygon>
    </defs>
    <g id="Page-1" stroke="none" stroke-width="1" fill="none" fill-rule="evenodd">
        <g id="shop--about" transform="translate(-80.000000, -587.000000)">
            <g id="header" transform="translate(0.000000, 81.000000)">
                <g id="running" transform="translate(80.000000, 506.000000)">
                    <path d="M29.5377143,11.4924846 C29.5251429,11.0103462 28.9594286,10.4724231 28.3777143,10.5902538 C28.1548571,10.6346538 27.8845714,10.7411 27.7308571,10.9659462 L26.8742857,12.1983308 L26.0291429,13.4290077 C26.0291429,13.4290077 24.832,12.2711923 24.4582857,11.9700692 C24.0845714,11.6689462 23.7131429,11.4247462 23.2405714,11.1481 C22.7674286,10.8708846 21.5445714,10.5737462 21.0205714,10.6409154 L20.6805714,10.6898692 L17.3365714,11.1720077 C16.7525714,11.2847154 16.4462857,11.6900077 16.3268571,11.9017615 L14.8725714,14.4581769 C14.7365714,14.7120538 14.6331429,14.9585308 14.6834286,15.2192385 C14.7742857,15.7019462 15.2588571,16.0696692 15.7691429,15.9820077 C16.044,15.9353308 16.3628571,15.7537462 16.5754286,15.4372538 L17.8445714,13.3817615 L19.3154286,13.1688692 L17.5662857,17.1250231 C16.5931429,18.8293 18.0902857,19.9079923 18.6228571,20.4385154 L18.8102857,20.5990385 L21.5697143,22.9801308 L19.608,26.3129769 C19.5022857,26.4518692 19.4668571,26.6624846 19.4668571,26.8389462 C19.4668571,27.5055154 19.996,28.0314846 20.6291429,28.0314846 C21.1217143,28.0314846 21.5085714,27.7508538 21.72,27.3637769 L22.2291429,26.4757769 L23.8885714,23.5795308 C24.4457143,22.4706692 23.6445714,21.5342846 23.6445714,21.5342846 L20.8268571,18.7279769 L21.5788571,17.4341154 L23.3365714,14.4337 L25.616,15.7679769 C25.616,15.7679769 26.5097143,16.4100692 27.1754286,15.4361154 L27.9714286,14.2800077 L29.2497143,12.3992692 C29.2525714,12.3947154 29.2548571,12.3913 29.2565714,12.3867462 C29.5188571,11.9843 29.5428571,11.7327 29.5377143,11.4924846" id="Fill-17" fill="#000000"></path>
                    <path d="M18.3301143,21.0782169 L18.1432571,20.9165554 C17.8918286,20.6666631 17.4295429,20.2938169 17.1095429,19.7923246 C17.0975429,19.7724015 14.7141143,23.7462015 14.7141143,23.7462015 L12.0632571,26.56674 C11.9295429,26.6794477 11.8478286,26.87754 11.8095429,27.0488785 C11.6621143,27.69894 12.0621143,28.32794 12.6792571,28.4662631 C13.1604,28.5749862 13.5998286,28.3865708 13.8912571,28.0552785 L14.5838286,27.3010477 L16.8432571,24.8391246 C17.4289714,24.1264477 18.5712571,22.5331708 19.1209714,21.7595862 L18.3301143,21.0782169 Z" id="Fill-19" fill="#000000"></path>
                    <path d="M23.1504571,6.94808769 C22.1550286,6.87693385 21.2550286,7.58505692 21.1836,8.50607231 C21.0887429,9.42651846 21.8470286,10.2530415 22.8658857,10.3236262 C23.8847429,10.39478 24.7618857,9.70999538 24.8327429,8.76564154 C24.9036,7.82128769 24.1693143,7.01867231 23.1504571,6.94808769" id="Fill-21" fill="#000000"></path>
                    <path d="M8.3156,23.4368815 C7.92302857,23.4368815 7.60474286,23.7539431 7.60474286,24.1450046 C7.60474286,24.5360662 7.92302857,24.8531277 8.3156,24.8531277 L12.2321714,24.8531277 L13.5636,23.4368815 L8.3156,23.4368815 Z" id="Fill-23" fill="#000000"></path>
                    <path d="M10.6962286,20.4422723 C10.3036571,20.4422723 9.98537143,20.7593338 9.98537143,21.1503954 C9.98537143,21.5420262 10.3036571,21.8585185 10.6962286,21.8585185 L14.5819429,21.8585185 C14.8596571,21.3968723 15.1670857,20.8868415 15.4362286,20.4422723 L10.6962286,20.4422723 Z" id="Fill-25" fill="#000000"></path>
                    <g id="Group-51">
                        <mask id="mask-2" fill="white">
                            <use xlink:href="#path-1"></use>
                        </mask>
                        <g id="Clip-50"></g>
                        <path d="M18.5712,1.70769231 C9.26148571,1.70769231 1.71405714,9.22609231 1.71405714,18.5 C1.71405714,27.7739077 9.26148571,35.2923077 18.5712,35.2923077 C27.8814857,35.2923077 35.4283429,27.7739077 35.4283429,18.5 C35.4186286,9.23007692 27.8774857,1.71736923 18.5712,1.70769231 M18.5712,37 C8.31462857,37 -0.000228571429,28.7171231 -0.000228571429,18.5 C-0.000228571429,8.28287692 8.31462857,0 18.5712,0 C28.8277714,0 37.1426286,8.28287692 37.1426286,18.5 C37.1306286,28.712 28.8226286,36.9874769 18.5712,37" id="Fill-49" fill="#000000" mask="url(#mask-2)"></path>
                    </g>
                </g>
            </g>
        </g>
    </g>
</svg>