<?xml version="1.0" standalone="no"?>
<!DOCTYPE svg PUBLIC "-//W3C//DTD SVG 1.1//EN" "http://www.w3.org/Graphics/SVG/1.1/DTD/svg11.dtd" >
<svg xmlns="http://www.w3.org/2000/svg" xmlns:xlink="http://www.w3.org/1999/xlink" version="1.1">
<metadata>
Created by FontForge 20160405 at Wed Oct  3 09:46:52 2018
 By Apache
(URW)++,Copyright 2000 by (URW)++ Design &#38; Development
</metadata>
<defs>
<font id="NeuzeitGroteskTOT-Bla" horiz-adv-x="500" >
  <font-face 
    font-family="Neuzeit Grotesk T OT"
    font-weight="900"
    font-stretch="normal"
    units-per-em="1000"
    panose-1="2 0 0 0 0 0 0 0 0 0"
    ascent="800"
    descent="-200"
    x-height="463"
    cap-height="667"
    bbox="-173 -250 1034 899"
    underline-thickness="97"
    underline-position="-102"
    stemh="121"
    stemv="153"
    unicode-range="U+0020-FB02"
  />
<missing-glyph horiz-adv-x="300" 
 />
    <glyph glyph-name="fi" unicode="fi" horiz-adv-x="544" 
d="M219 337v-337h-152v337h-46v126h46v8c0 94 31 154 95 179c35 14 52 17 111 17v-141c-38 -5 -54 -21 -54 -55v-8h54v-126h-54zM488 463v-463h-152v463h152zM413 678c46 0 80 -34 80 -82c0 -46 -35 -80 -81 -80c-47 0 -81 34 -81 81s34 81 82 81z" />
    <glyph glyph-name="fl" unicode="fl" horiz-adv-x="544" 
d="M219 337v-337h-152v337h-46v126h46v8c0 94 31 154 95 179c35 14 52 17 111 17v-141c-38 -5 -54 -21 -54 -55v-8h54v-126h-54zM488 0h-152v667h152v-667z" />
    <glyph glyph-name=".notdef" horiz-adv-x="300" 
 />
    <glyph glyph-name="space" unicode=" " horiz-adv-x="300" 
 />
    <glyph glyph-name="space" unicode="&#xa0;" horiz-adv-x="300" 
 />
    <glyph glyph-name="exclam" unicode="!" horiz-adv-x="302" 
d="M225 667v-437h-148v437h148zM152 154c49 0 84 -36 84 -86c0 -47 -36 -83 -85 -83c-48 0 -84 36 -84 85s36 84 85 84z" />
    <glyph glyph-name="quotedbl" unicode="&#x22;" horiz-adv-x="450" 
d="M173 400h-118l-31 267h180zM394 400h-118l-30 267h179z" />
    <glyph glyph-name="numbersign" unicode="#" 
d="M451 296v-76h-93l-29 -193h-77l28 193h-87l-29 -193h-76l29 193h-92v76h103l14 87h-91v76h102l27 181h74l-26 -181h88l26 181h77l-27 -181h82v-76h-93l-12 -87h82zM305 383h-89l-12 -87h87z" />
    <glyph glyph-name="dollar" unicode="$" 
d="M271 543v-147c53 -17 81 -29 114 -49c54 -32 84 -84 84 -146c0 -73 -42 -144 -103 -175c-25 -13 -48 -19 -95 -25v-86h-50v86c-109 6 -187 85 -189 190h136c-1 -35 16 -57 53 -67v144c-138 46 -192 103 -192 203c0 110 81 193 192 196v71h50v-71
c122 -19 183 -77 188 -179h-133c1 30 -20 50 -55 55zM221 413v130c-36 -5 -58 -28 -58 -64c0 -18 10 -38 22 -48c7 -5 12 -8 36 -18zM271 250v-126c37 7 57 30 57 67c0 32 -14 47 -57 59z" />
    <glyph glyph-name="percent" unicode="%" horiz-adv-x="712" 
d="M302 547v-106c0 -85 -46 -131 -131 -131c-42 0 -79 12 -102 33c-23 23 -32 54 -32 118v78c0 51 9 82 30 104c22 24 59 37 100 37c38 0 71 -11 96 -32c27 -24 39 -53 39 -101zM130 539v-89c0 -28 1 -33 5 -42c5 -11 19 -17 36 -17c31 0 40 15 40 63v85c0 45 -9 58 -40 58
c-32 0 -41 -12 -41 -58zM675 223v-105c0 -85 -46 -131 -131 -131c-42 0 -79 12 -102 33c-23 23 -32 54 -32 117v79c0 51 9 82 30 104c23 24 59 37 100 37c39 0 71 -11 96 -32c27 -24 39 -54 39 -102zM503 216v-90c0 -27 1 -32 5 -41c5 -11 19 -17 36 -17c31 0 40 15 40 62
v86c0 45 -9 58 -40 58c-32 0 -41 -13 -41 -58zM593 654l-431 -667l-43 27l431 666z" />
    <glyph glyph-name="ampersand" unicode="&#x26;" horiz-adv-x="657" 
d="M529 143l115 -143h-177l-43 52c-73 -51 -129 -72 -189 -72c-119 0 -202 79 -202 194c0 84 35 135 138 204c-40 58 -53 92 -53 137c0 89 75 152 181 152c104 0 179 -63 179 -151c0 -33 -14 -73 -38 -104c-17 -24 -34 -38 -73 -64l77 -100c52 45 59 53 100 100l100 -88
c-54 -61 -62 -70 -115 -117zM290 449c36 21 51 41 51 64s-16 41 -38 41c-23 0 -43 -19 -43 -41c0 -19 9 -38 30 -64zM336 158l-90 112c-44 -27 -64 -53 -64 -83c0 -39 33 -71 71 -71c30 0 61 16 83 42z" />
    <glyph glyph-name="quoteright" unicode="&#x2019;" horiz-adv-x="243" 
d="M212 649l-73 -211l-100 25l44 217z" />
    <glyph glyph-name="parenleft" unicode="(" horiz-adv-x="339" 
d="M299 -141l-104 -86c-108 147 -162 301 -162 463c0 99 22 202 64 300c31 74 55 111 106 167l96 -88c-86 -116 -131 -250 -131 -388c0 -131 43 -253 131 -368z" />
    <glyph glyph-name="parenright" unicode=")" horiz-adv-x="339" 
d="M40 618l104 85c108 -147 162 -300 162 -463c0 -98 -22 -201 -64 -299c-31 -75 -55 -111 -106 -168l-96 89c85 115 131 250 131 387c0 131 -44 254 -131 369z" />
    <glyph glyph-name="asterisk" unicode="*" horiz-adv-x="410" 
d="M202 451l-49 -72l-71 49l51 72l-80 27l29 77l79 -24v87h82v-87l84 33l30 -76l-93 -37l63 -72l-63 -49z" />
    <glyph glyph-name="plus" unicode="+" 
d="M8 400h202v201h80v-201h203v-77h-203v-201h-80v201h-202v77z" />
    <glyph glyph-name="comma" unicode="," horiz-adv-x="275" 
d="M227 121l-84 -240l-101 22l45 250z" />
    <glyph glyph-name="hyphen" unicode="-" horiz-adv-x="229" 
d="M229 311v-133h-229v133h229z" />
    <glyph glyph-name="hyphen" unicode="&#xad;" horiz-adv-x="229" 
d="M229 311v-133h-229v133h229z" />
    <glyph glyph-name="period" unicode="." horiz-adv-x="275" 
d="M138 154c49 0 84 -36 84 -86c0 -47 -36 -83 -85 -83c-48 0 -84 36 -84 85s36 84 85 84z" />
    <glyph glyph-name="slash" unicode="/" horiz-adv-x="392" 
d="M372 667l-330 -871h-99l330 871h99z" />
    <glyph glyph-name="zero" unicode="0" 
d="M464 459v-256c0 -78 -18 -128 -59 -165c-38 -35 -89 -52 -153 -52c-69 0 -127 20 -164 55c-38 37 -52 90 -52 196v210c0 85 14 136 48 172c36 40 95 62 162 62c62 0 115 -18 154 -53c45 -40 64 -89 64 -169zM188 447v-230c0 -42 1 -51 9 -64c9 -17 31 -28 54 -28
c22 0 43 11 52 29c9 15 11 31 11 71v222c0 41 -3 56 -14 71c-10 13 -28 21 -49 21c-47 0 -63 -24 -63 -92z" />
    <glyph glyph-name="one" unicode="1" 
d="M223 473l-108 -48v139l261 121v-685h-153v473z" />
    <glyph glyph-name="two" unicode="2" 
d="M273 132h167v-132h-420l233 366c40 63 51 87 51 115c0 37 -26 62 -64 62c-30 0 -55 -16 -64 -43c-6 -17 -8 -29 -9 -62h-138v17c0 135 89 226 220 226c122 0 208 -77 208 -185c0 -63 -22 -117 -85 -214z" />
    <glyph glyph-name="three" unicode="3" 
d="M224 539h-172v128h419l-179 -249c105 -14 169 -91 169 -202c0 -133 -94 -230 -223 -230c-79 0 -148 36 -183 96c-20 33 -27 61 -31 114h136c5 -47 33 -74 75 -74c46 0 82 36 82 83c0 51 -34 87 -82 87c-20 0 -37 -5 -52 -15l-91 77z" />
    <glyph glyph-name="four" unicode="4" 
d="M268 130h-235v128l204 409h176v-409h53v-128h-53v-130h-145v130zM268 258v228l-117 -228h117z" />
    <glyph glyph-name="five" unicode="5" 
d="M201 532v-128c29 13 50 18 77 18c106 0 187 -90 187 -207c0 -134 -90 -229 -217 -229c-62 0 -120 23 -159 65c-23 24 -35 45 -54 94l130 49c14 -43 40 -65 77 -65c43 0 76 35 76 81s-35 84 -77 84c-28 0 -49 -12 -66 -39h-111v412h365v-135h-228z" />
    <glyph glyph-name="six" unicode="6" 
d="M439 667l-170 -262c10 2 16 3 22 3c97 0 178 -89 178 -196c0 -125 -100 -226 -225 -226c-122 0 -213 92 -213 214c0 67 25 134 84 226l154 241h170zM252 283c-44 0 -79 -35 -79 -80c0 -43 32 -75 75 -75c44 0 79 34 79 77c0 45 -32 78 -75 78z" />
    <glyph glyph-name="seven" unicode="7" 
d="M260 531h-196v136h405l-261 -667h-156z" />
    <glyph glyph-name="eight" unicode="8" 
d="M389 344c54 -32 81 -81 81 -150c0 -121 -93 -208 -222 -208s-218 82 -218 200c0 76 27 127 85 158c-44 26 -68 73 -68 134c0 120 85 203 207 203c119 0 204 -82 204 -198c0 -62 -25 -112 -69 -139zM254 551c-41 0 -72 -31 -72 -72c0 -42 31 -75 70 -75s74 34 74 73
c0 40 -34 74 -72 74zM250 273c-44 0 -76 -32 -76 -75c0 -44 31 -75 76 -75c42 0 75 33 75 75c0 41 -34 75 -75 75z" />
    <glyph glyph-name="nine" unicode="9" 
d="M66 0l169 260c-4 -1 -8 -1 -10 -1c-111 0 -194 85 -194 199c0 126 97 223 223 223c125 0 216 -93 216 -218c0 -67 -26 -137 -84 -227l-151 -236h-169zM253 541c-43 0 -78 -34 -78 -76c0 -44 33 -77 75 -77c44 0 78 33 78 76c0 42 -34 77 -75 77z" />
    <glyph glyph-name="colon" unicode=":" horiz-adv-x="275" 
d="M138 154c49 0 84 -36 84 -86c0 -47 -36 -83 -85 -83c-48 0 -84 36 -84 85s36 84 85 84zM138 502c49 0 84 -36 84 -86c0 -47 -36 -83 -85 -83c-48 0 -84 36 -84 85s36 84 85 84z" />
    <glyph glyph-name="semicolon" unicode=";" horiz-adv-x="275" 
d="M227 121l-84 -240l-101 22l45 250zM154 482c49 0 84 -36 84 -86c0 -47 -36 -83 -85 -83c-48 0 -84 36 -84 85s36 84 85 84z" />
    <glyph glyph-name="less" unicode="&#x3c;" 
d="M466 639v-164l-258 -138l258 -138v-163l-433 233v138z" />
    <glyph glyph-name="equal" unicode="=" 
d="M8 475h485v-75h-485v75zM8 323h485v-75h-485v75z" />
    <glyph glyph-name="greater" unicode="&#x3e;" 
d="M33 36v165l258 137l-258 138v163l433 -232v-139z" />
    <glyph glyph-name="question" unicode="?" horiz-adv-x="457" 
d="M285 242h-153c-1 17 -1 29 -1 38c0 70 9 85 94 152c33 26 45 43 45 64c0 29 -21 48 -53 48c-35 0 -54 -22 -56 -62h-140c3 126 77 198 201 198c119 0 202 -75 202 -182c0 -64 -25 -109 -84 -152c-49 -36 -55 -44 -55 -74v-14v-16zM210 154c49 0 84 -36 84 -86
c0 -47 -36 -83 -85 -83c-48 0 -84 36 -84 85s36 84 85 84z" />
    <glyph glyph-name="at" unicode="@" horiz-adv-x="768" 
d="M650 188h51c-29 -61 -48 -86 -86 -119c-60 -51 -138 -79 -221 -79c-187 0 -341 154 -341 342c0 190 159 346 352 346c169 0 309 -128 309 -283c0 -135 -115 -262 -238 -262c-43 0 -67 19 -70 55c-50 -41 -77 -53 -114 -53c-65 0 -108 49 -108 123c0 57 22 125 59 179
c41 62 100 97 162 97c36 0 58 -10 86 -39l9 21h90l-108 -281c-7 -18 -11 -32 -11 -39c0 -12 9 -19 26 -19s36 7 56 20c62 41 103 116 103 191c0 128 -114 233 -252 233c-160 0 -291 -132 -291 -293c0 -81 30 -148 91 -205c55 -51 117 -76 189 -76c68 0 133 22 186 64
c27 21 42 38 71 77zM411 293l49 120c3 7 5 17 5 27c0 30 -14 47 -39 47c-16 0 -36 -10 -53 -28c-56 -58 -106 -168 -106 -236c0 -27 13 -42 38 -42c37 0 78 44 106 112z" />
    <glyph glyph-name="A" unicode="A" horiz-adv-x="645" 
d="M438 96h-236l-29 -96h-173l220 667h206l219 -667h-178zM398 227l-78 249l-78 -249h156z" />
    <glyph glyph-name="B" unicode="B" horiz-adv-x="582" 
d="M63 667h228c84 0 134 -9 170 -32c46 -28 74 -85 74 -149c0 -46 -15 -86 -45 -116c-19 -20 -34 -28 -70 -39c41 -9 59 -18 80 -38c30 -28 45 -67 45 -116c0 -62 -25 -117 -68 -146c-33 -22 -73 -31 -141 -31h-273v667zM225 546v-155h40c72 0 105 24 105 78s-32 77 -107 77
h-38zM225 273v-157h59c68 0 97 23 97 77c0 33 -12 55 -36 68c-18 10 -34 12 -83 12h-37z" />
    <glyph glyph-name="C" unicode="C" horiz-adv-x="637" 
d="M522 194l96 -112c-80 -68 -151 -95 -250 -95c-102 0 -183 33 -244 101c-57 63 -90 152 -90 244c0 108 44 209 118 273c59 50 132 75 221 75c104 0 174 -28 253 -101l-104 -109c-47 41 -93 60 -143 60c-107 0 -181 -79 -181 -194c0 -117 79 -199 191 -199
c57 0 98 18 133 57z" />
    <glyph glyph-name="D" unicode="D" horiz-adv-x="648" 
d="M63 0v667h195c115 0 186 -21 247 -73c71 -60 109 -150 109 -254s-40 -202 -106 -263c-55 -50 -136 -77 -232 -77h-213zM225 537v-404h25c118 0 200 82 200 202c0 59 -24 120 -61 154c-32 29 -84 48 -133 48h-31z" />
    <glyph glyph-name="E" unicode="E" horiz-adv-x="459" 
d="M195 536v-136h220v-131h-220v-138h220v-131h-382v667h382v-131h-220z" />
    <glyph glyph-name="F" unicode="F" horiz-adv-x="472" 
d="M225 536v-136h222v-131h-222v-269h-162v667h384v-131h-222z" />
    <glyph glyph-name="G" unicode="G" horiz-adv-x="762" 
d="M396 380h341c1 -13 1 -29 1 -35c0 -109 -36 -196 -111 -264c-66 -60 -153 -94 -244 -94c-198 0 -349 149 -349 345c0 198 150 348 347 348c112 0 213 -48 281 -132l-123 -95c-43 53 -90 77 -153 77c-107 0 -188 -85 -188 -199c0 -110 86 -197 195 -197
c77 0 140 44 167 115h-164v131z" />
    <glyph glyph-name="H" unicode="H" horiz-adv-x="670" 
d="M225 263v-263h-162v667h162v-273h219v273h162v-667h-162v263h-219z" />
    <glyph glyph-name="I" unicode="I" horiz-adv-x="289" 
d="M225 667v-667h-162v667h162z" />
    <glyph glyph-name="J" unicode="J" horiz-adv-x="389" 
d="M335 667v-416c0 -87 -10 -134 -38 -172c-36 -50 -86 -76 -161 -87c-31 -4 -49 -5 -103 -5v144c11 -1 17 -1 23 -1c34 0 65 8 83 22c26 20 34 49 34 127v257h-140v131h302z" />
    <glyph glyph-name="K" unicode="K" horiz-adv-x="574" 
d="M225 292v-292h-162v667h162v-282l156 282h186l-186 -317l186 -350h-186z" />
    <glyph glyph-name="L" unicode="L" horiz-adv-x="462" 
d="M225 131h217v-131h-379v667h162v-536z" />
    <glyph glyph-name="M" unicode="M" horiz-adv-x="858" 
d="M225 381v-381h-162v667h189l177 -359l175 359h190v-667h-162v381l-203 -408z" />
    <glyph glyph-name="N" unicode="N" horiz-adv-x="694" 
d="M225 380v-380h-162v667h162l243 -375v375h162v-667h-162z" />
    <glyph glyph-name="O" unicode="O" horiz-adv-x="774" 
d="M395 680c197 0 345 -149 345 -348c0 -96 -46 -195 -120 -260c-62 -56 -142 -85 -229 -85c-199 0 -357 152 -357 344c0 97 39 187 112 256c64 60 152 93 249 93zM389 530c-109 0 -190 -84 -190 -197c0 -110 83 -196 189 -196c104 0 188 86 188 193c0 114 -80 200 -187 200
z" />
    <glyph glyph-name="P" unicode="P" horiz-adv-x="561" 
d="M225 217v-217h-162v667h229c159 0 249 -80 249 -219c0 -140 -94 -231 -239 -231h-77zM225 350h45c68 0 107 34 107 92c0 55 -38 92 -96 92h-56v-184z" />
    <glyph glyph-name="Q" unicode="Q" horiz-adv-x="773" 
d="M718 49l-116 -96l-55 69c-53 -24 -102 -35 -160 -35c-194 0 -353 154 -353 344c0 196 156 349 357 349c197 0 348 -148 348 -341c0 -84 -29 -168 -79 -227zM505 292l48 -55c14 31 22 69 22 101c0 106 -83 191 -187 191c-107 0 -189 -85 -189 -196
c0 -110 82 -195 188 -195c21 0 34 1 46 5l-44 53z" />
    <glyph glyph-name="R" unicode="R" horiz-adv-x="596" 
d="M225 258v-258h-162v667h216c88 0 152 -16 196 -50c46 -36 72 -96 72 -169c0 -101 -43 -169 -129 -203l147 -245h-194zM225 349h52c67 0 106 34 106 92c0 56 -38 93 -96 93h-62v-185z" />
    <glyph glyph-name="S" unicode="S" horiz-adv-x="536" 
d="M27 202h159c-1 -4 -1 -9 -1 -11c0 -33 36 -61 79 -61c39 0 69 24 69 54s-18 44 -96 72c-147 53 -204 113 -204 215c0 125 93 209 231 209c90 0 165 -38 204 -103c19 -31 28 -60 35 -107h-165c-5 46 -29 67 -75 67c-39 0 -66 -21 -66 -53c0 -20 10 -36 31 -48
c12 -8 25 -14 76 -33c76 -28 113 -48 143 -75c36 -34 56 -80 56 -134c0 -124 -96 -207 -239 -207c-146 0 -237 83 -237 215z" />
    <glyph glyph-name="T" unicode="T" horiz-adv-x="469" 
d="M316 536v-536h-162v536h-154v131h469v-131h-153z" />
    <glyph glyph-name="U" unicode="U" horiz-adv-x="640" 
d="M215 667v-388c0 -50 7 -81 23 -104c17 -23 48 -38 82 -38c37 0 72 18 87 44c12 22 17 50 17 98v388h162v-381c0 -98 -23 -172 -69 -222c-45 -49 -116 -77 -196 -77c-83 0 -158 30 -206 83c-43 48 -62 112 -62 216v381h162z" />
    <glyph glyph-name="V" unicode="V" horiz-adv-x="568" 
d="M280 260l121 407h167l-201 -667h-176l-191 667h167z" />
    <glyph glyph-name="W" unicode="W" horiz-adv-x="855" 
d="M595 279l91 388h169l-178 -667h-168l-85 395l-85 -395h-167l-172 667h172l86 -379l89 379h162z" />
    <glyph glyph-name="X" unicode="X" horiz-adv-x="595" 
d="M298 215l-109 -215h-186l204 358l-173 309h185l79 -160l85 160h184l-177 -309l201 -358h-184z" />
    <glyph glyph-name="Y" unicode="Y" horiz-adv-x="571" 
d="M368 294v-294h-162v294l-219 373h193l108 -205l106 205h190z" />
    <glyph glyph-name="Z" unicode="Z" horiz-adv-x="556" 
d="M264 131h253v-131h-504l279 536h-247v131h498z" />
    <glyph glyph-name="bracketleft" unicode="[" horiz-adv-x="339" 
d="M60 667h240v-87h-113v-697h113v-87h-240v871z" />
    <glyph glyph-name="backslash" unicode="\" horiz-adv-x="392" 
d="M20 667h99l330 -871h-99z" />
    <glyph glyph-name="bracketright" unicode="]" horiz-adv-x="339" 
d="M279 667v-871h-240v87h113v697h-113v87h240z" />
    <glyph glyph-name="asciicircum" unicode="^" 
d="M158 345h-146l147 326h183l147 -326h-146l-92 215z" />
    <glyph glyph-name="underscore" unicode="_" 
d="M0 -54h500v-97h-500v97z" />
    <glyph glyph-name="quoteleft" unicode="&#x2018;" horiz-adv-x="243" 
d="M31 470l73 210l100 -24l-44 -218z" />
    <glyph glyph-name="a" unicode="a" horiz-adv-x="622" 
d="M413 413v50h152v-463h-152v52c-42 -48 -91 -70 -157 -70c-132 0 -227 102 -227 243c0 148 101 256 240 256c59 0 99 -19 144 -68zM302 355c-65 0 -111 -53 -111 -127c0 -71 48 -126 110 -126c63 0 114 58 114 128c0 74 -47 125 -113 125z" />
    <glyph glyph-name="b" unicode="b" horiz-adv-x="621" 
d="M209 50v-50h-152v667h152v-250c43 46 84 64 144 64c65 0 129 -27 174 -73c42 -43 65 -107 65 -179c0 -148 -94 -247 -234 -247c-68 0 -110 19 -149 68zM320 355c-61 0 -113 -59 -113 -129c0 -71 47 -124 110 -124c66 0 113 53 113 126c0 72 -48 127 -110 127z" />
    <glyph glyph-name="c" unicode="c" horiz-adv-x="473" 
d="M374 149l91 -98c-55 -48 -111 -69 -181 -69c-69 0 -137 27 -185 73c-46 43 -70 104 -70 174c0 147 106 252 253 252c71 0 128 -24 193 -80l-101 -91c-26 26 -52 37 -85 37c-60 0 -107 -50 -107 -113c0 -67 50 -118 115 -118c27 0 46 8 77 33z" />
    <glyph glyph-name="d" unicode="d" horiz-adv-x="623" 
d="M414 421v246h152v-667h-152v52c-21 -29 -33 -40 -54 -50c-27 -13 -60 -20 -96 -20c-142 0 -236 98 -236 245c0 79 26 142 77 189c45 41 104 65 161 65c61 0 104 -18 148 -60zM304 355c-66 0 -114 -55 -114 -129c0 -70 49 -124 114 -124c62 0 110 54 110 124
c0 74 -47 129 -110 129z" />
    <glyph glyph-name="e" unicode="e" horiz-adv-x="563" 
d="M537 199h-351c11 -52 51 -83 106 -83c41 0 74 18 91 51l140 -36c-23 -46 -40 -67 -75 -94c-47 -37 -99 -55 -159 -55c-151 0 -260 105 -260 252s102 247 252 247c153 0 256 -106 256 -263v-19zM185 280h197c-10 48 -46 75 -100 75c-52 0 -87 -27 -97 -75z" />
    <glyph glyph-name="f" unicode="f" horiz-adv-x="298" 
d="M219 337v-337h-152v337h-46v126h46v8c0 94 31 154 95 179c35 14 52 17 111 17v-141c-38 -5 -54 -21 -54 -55v-8h54v-126h-54z" />
    <glyph glyph-name="g" unicode="g" horiz-adv-x="598" 
d="M393 416v47h148v-412c0 -102 -17 -159 -62 -204c-47 -47 -120 -74 -202 -74c-93 0 -170 31 -239 95l92 94c38 -42 85 -63 139 -63c77 0 124 48 124 129v23c-41 -46 -95 -69 -160 -69c-64 0 -127 29 -169 79c-34 41 -53 100 -53 166c0 152 96 254 239 254
c62 0 105 -20 143 -65zM283 347c-65 0 -110 -47 -110 -113c0 -69 47 -118 112 -118c34 0 66 14 86 36c13 15 20 38 20 67c0 80 -40 128 -108 128z" />
    <glyph glyph-name="h" unicode="h" horiz-adv-x="539" 
d="M209 667v-247c37 43 73 62 120 62c39 0 84 -17 113 -44c32 -29 44 -65 44 -135v-303h-152v278c0 47 -24 78 -61 78c-40 0 -64 -29 -64 -78v-278h-152v667h152z" />
    <glyph glyph-name="i" unicode="i" horiz-adv-x="265" 
d="M209 463v-463h-152v463h152zM134 678c46 0 80 -34 80 -82c0 -46 -35 -80 -81 -80c-47 0 -81 34 -81 81s34 81 82 81z" />
    <glyph glyph-name="j" unicode="j" horiz-adv-x="265" 
d="M208 463v-463c0 -143 -60 -208 -192 -208c-7 0 -24 1 -41 2v138c8 -1 17 -1 22 -1c39 0 59 23 59 69v463h152zM133 678c46 0 80 -34 80 -82c0 -46 -35 -80 -81 -80c-47 0 -81 34 -81 81s34 81 82 81z" />
    <glyph glyph-name="k" unicode="k" horiz-adv-x="488" 
d="M209 185v-185h-152v667h152v-369l103 165h172l-135 -220l135 -243h-172z" />
    <glyph glyph-name="l" unicode="l" horiz-adv-x="265" 
d="M209 0h-152v667h152v-667z" />
    <glyph glyph-name="m" unicode="m" horiz-adv-x="802" 
d="M57 463h152v-56c27 51 66 74 125 74c30 0 57 -8 82 -22c23 -14 33 -25 45 -52c31 52 73 75 136 75c44 0 83 -15 110 -41c30 -30 41 -65 41 -135v-306h-152v279c0 48 -22 77 -59 77s-59 -29 -59 -77v-279h-152v274c0 51 -22 81 -60 81c-18 0 -35 -9 -45 -22
c-9 -14 -12 -27 -12 -59v-274h-152v463z" />
    <glyph glyph-name="n" unicode="n" horiz-adv-x="542" 
d="M57 463h152v-52c30 51 62 70 118 70c46 0 90 -17 119 -45c31 -31 42 -70 42 -152v-284h-152v283c0 45 -24 72 -63 72s-64 -29 -64 -74v-281h-152v463z" />
    <glyph glyph-name="o" unicode="o" horiz-adv-x="578" 
d="M290 481c150 0 259 -108 259 -255c0 -137 -115 -244 -261 -244c-150 0 -259 104 -259 248c0 148 107 251 261 251zM290 346c-66 0 -109 -46 -109 -115c0 -68 44 -115 108 -115c63 0 107 46 107 112c0 73 -40 118 -106 118z" />
    <glyph glyph-name="p" unicode="p" horiz-adv-x="625" 
d="M57 463h152v-44c36 43 81 62 144 62c44 0 87 -11 124 -32c78 -45 119 -121 119 -221c0 -151 -92 -246 -238 -246c-63 0 -112 19 -149 58v-244h-152v667zM323 355c-67 0 -114 -53 -114 -129c0 -75 44 -124 109 -124c67 0 116 52 116 123c0 75 -47 130 -111 130z" />
    <glyph glyph-name="q" unicode="q" horiz-adv-x="623" 
d="M414 463h152v-667h-152v241c-43 -39 -87 -55 -154 -55c-135 0 -231 101 -231 243c0 150 101 256 244 256c64 0 103 -17 141 -59v41zM303 355c-65 0 -112 -53 -112 -126c0 -72 48 -127 111 -127s114 56 114 126c0 73 -48 127 -113 127z" />
    <glyph glyph-name="r" unicode="r" horiz-adv-x="341" 
d="M57 463h152v-63c12 34 21 48 40 61c18 13 43 20 67 20h15v-156c-11 1 -22 2 -28 2c-34 0 -63 -14 -79 -37c-12 -16 -15 -33 -15 -72v-218h-152v463z" />
    <glyph glyph-name="s" unicode="s" horiz-adv-x="423" 
d="M389 326h-141v9c0 20 -20 37 -44 37c-21 0 -36 -13 -36 -31c0 -19 15 -30 53 -41c130 -37 177 -80 177 -161c0 -94 -75 -157 -188 -157s-184 59 -187 156h144c6 -34 17 -47 43 -47c20 0 35 14 35 33c0 22 -15 32 -77 52c-100 32 -145 79 -145 152c0 92 75 153 187 153
c110 0 178 -58 179 -155z" />
    <glyph glyph-name="t" unicode="t" horiz-adv-x="295" 
d="M215 340v-184c0 -21 11 -30 37 -30h16v-126h-117c-63 0 -88 28 -88 97v243h-47v126h47v114h152v-114h53v-126h-53z" />
    <glyph glyph-name="u" unicode="u" horiz-adv-x="529" 
d="M327 463h152v-291c0 -71 -16 -111 -55 -143c-39 -31 -93 -47 -158 -47c-69 0 -128 18 -165 51c-35 31 -51 75 -51 139v291h152v-280c0 -48 23 -75 64 -75c38 0 61 24 61 64v291z" />
    <glyph glyph-name="v" unicode="v" horiz-adv-x="477" 
d="M328 463h155l-166 -463h-156l-166 463h157l89 -239z" />
    <glyph glyph-name="w" unicode="w" horiz-adv-x="745" 
d="M597 463h154l-146 -463h-161l-70 251l-69 -251h-165l-145 463h154l81 -253l68 253h146l72 -253z" />
    <glyph glyph-name="x" unicode="x" horiz-adv-x="496" 
d="M254 106l-67 -106h-177l157 229l-170 234h190l67 -101l62 101h184l-161 -234l161 -229h-184z" />
    <glyph glyph-name="y" unicode="y" horiz-adv-x="484" 
d="M236 220l93 243h160l-253 -669h-163l83 215l-161 454h161z" />
    <glyph glyph-name="z" unicode="z" horiz-adv-x="430" 
d="M246 126h163v-126h-397l172 337h-158v126h392z" />
    <glyph glyph-name="braceleft" unicode="{" 
d="M307 446v-82c0 -66 -13 -93 -58 -123c44 -27 58 -57 58 -123v-88c0 -68 11 -77 97 -77v-144c-53 -2 -70 -2 -88 -2c-84 0 -115 8 -143 39c-21 23 -30 56 -30 107v137c0 56 -15 80 -56 89v133c39 9 56 33 56 81v142c0 53 11 86 36 109c29 26 57 32 143 32c26 0 37 0 82 -1
v-153c-88 -1 -97 -8 -97 -76z" />
    <glyph glyph-name="bar" unicode="|" 
d="M167 667h167v-834h-167v834z" />
    <glyph glyph-name="braceright" unicode="}" 
d="M193 37v82c0 66 13 93 58 123c-44 28 -58 58 -58 123v88c-1 49 -4 57 -20 67c-10 7 -35 11 -64 11h-14v144c42 1 71 1 89 1c84 0 115 -8 143 -39c20 -22 30 -56 30 -106v-138c0 -56 15 -80 55 -89v-133c-39 -8 -55 -32 -55 -80v-142c0 -53 -11 -87 -36 -110
c-29 -26 -57 -32 -142 -32c-24 0 -32 0 -84 2v152h14c31 0 56 4 66 12c14 11 18 24 18 64z" />
    <glyph glyph-name="asciitilde" unicode="~" horiz-adv-x="667" 
d="M172 546l-80 67c38 96 87 141 152 141c24 0 52 -8 112 -33c51 -21 58 -23 73 -23c26 0 46 17 68 59l79 -67c-41 -102 -84 -140 -156 -140c-28 0 -42 4 -112 33c-36 15 -55 21 -71 21c-24 0 -42 -16 -65 -58z" />
    <glyph glyph-name="exclamdown" unicode="&#xa1;" horiz-adv-x="302" 
d="M77 -204v437h148v-437h-148zM152 479c48 0 84 -36 84 -85s-36 -84 -85 -84s-84 36 -84 86c0 47 37 83 85 83z" />
    <glyph glyph-name="cent" unicode="&#xa2;" 
d="M316 438v-236c25 3 39 9 60 26l90 -91c-41 -37 -91 -58 -150 -64v-104h-50v104c-52 7 -80 17 -116 41c-71 46 -103 110 -103 206c0 94 39 171 107 213c33 20 60 28 112 34v71h50v-71c61 -5 106 -27 158 -76l-98 -86c-20 21 -32 28 -60 33zM266 202v236
c-27 -7 -37 -14 -51 -32c-17 -23 -25 -49 -25 -84c0 -64 25 -104 76 -120z" />
    <glyph glyph-name="sterling" unicode="&#xa3;" 
d="M273 376h129v-67h-98c11 -26 14 -39 14 -55c0 -27 -9 -45 -45 -92c3 -1 4 -2 5 -2l18 -6c4 -1 17 -7 30 -15c45 -25 65 -32 88 -32c19 0 35 7 57 26v-111c-29 -21 -64 -32 -98 -32s-59 10 -123 49c-29 17 -45 23 -62 23c-32 0 -53 -24 -54 -62h-113c5 103 59 172 140 177
c17 34 21 47 21 64c0 27 -11 50 -33 68h-117v67h64c-30 39 -39 65 -39 109c0 112 86 192 205 192c67 0 130 -28 174 -77c24 -27 33 -57 35 -114h-134c0 46 -27 78 -66 78c-36 0 -65 -30 -65 -68s12 -60 67 -120z" />
    <glyph glyph-name="fraction" unicode="&#x2044;" horiz-adv-x="128" 
d="M302 654l-432 -667l-43 27l431 666z" />
    <glyph glyph-name="fraction" unicode="&#x2215;" horiz-adv-x="128" 
d="M302 654l-432 -667l-43 27l431 666z" />
    <glyph glyph-name="yen" unicode="&#xa5;" 
d="M103 450l-101 217h159l92 -237l92 237h152l-98 -217h78v-73h-112l-37 -84v-7h129v-73h-129v-213h-153v213h-133v73h133v7l-38 84h-115v73h81z" />
    <glyph glyph-name="florin" unicode="&#x192;" 
d="M194 396h-46l12 67h45l14 75c23 136 100 199 240 195l-25 -141c-38 -4 -58 -21 -64 -54l-13 -75h54l-11 -67h-55l-59 -334c-23 -133 -96 -196 -225 -196h-15l25 141c38 4 58 21 64 55z" />
    <glyph glyph-name="section" unicode="&#xa7;" 
d="M444 509h-128c-3 43 -27 67 -67 67c-34 0 -61 -24 -61 -54c0 -33 21 -49 105 -84c75 -30 100 -44 127 -71c29 -29 45 -67 45 -110c0 -70 -37 -125 -108 -159c53 -28 81 -71 81 -129c0 -99 -81 -170 -194 -170c-71 0 -130 27 -164 76c-21 30 -29 56 -31 105h130
c0 -47 27 -77 68 -77c36 0 63 27 63 64c0 22 -10 41 -30 53c-15 9 -26 14 -74 31c-71 26 -99 41 -124 67c-30 30 -47 76 -47 123c0 80 43 139 113 157c-58 25 -88 69 -88 128c0 92 74 154 185 154c78 0 145 -30 175 -78c16 -24 22 -50 24 -93zM250 328
c-51 0 -90 -36 -90 -83c0 -46 40 -83 88 -83c50 0 89 37 89 83c0 45 -39 83 -87 83z" />
    <glyph glyph-name="currency" unicode="&#xa4;" horiz-adv-x="719" 
d="M38 107l102 102c-23 40 -36 87 -36 130s12 82 39 132l-105 104l85 86l107 -107c53 28 85 37 130 37c44 0 73 -8 127 -36l105 105l85 -85l-103 -103c29 -47 41 -87 41 -134c0 -44 -9 -77 -36 -128l101 -102l-83 -85l-102 101c-44 -27 -86 -40 -131 -40
c-46 0 -90 12 -140 40l-102 -101zM361 452c-63 0 -113 -50 -113 -113c0 -61 50 -112 111 -112c62 0 112 51 112 113c0 61 -50 112 -110 112z" />
    <glyph glyph-name="quotesingle" unicode="'" horiz-adv-x="234" 
d="M178 400h-123l-31 267h185z" />
    <glyph glyph-name="quotedblleft" unicode="&#x201c;" horiz-adv-x="449" 
d="M228 452l77 228l105 -24l-47 -238zM31 452l78 228l104 -24l-47 -238z" />
    <glyph glyph-name="guillemotleft" unicode="&#xab;" horiz-adv-x="426" 
d="M125 240l94 -163h-94l-92 163l92 167h94zM292 240l94 -163h-94l-92 163l92 167h94z" />
    <glyph glyph-name="guilsinglleft" unicode="&#x2039;" horiz-adv-x="259" 
d="M125 240l94 -163h-94l-92 163l92 167h94z" />
    <glyph glyph-name="guilsinglright" unicode="&#x203a;" horiz-adv-x="259" 
d="M134 244l-94 163h94l92 -163l-92 -167h-94z" />
    <glyph glyph-name="endash" unicode="&#x2013;" 
d="M465 301v-126h-430v126h430z" />
    <glyph glyph-name="dagger" unicode="&#x2020;" 
d="M187 667h127v-167h146v-107h-146v-580h-127v580h-147v107h147v167z" />
    <glyph glyph-name="daggerdbl" unicode="&#x2021;" 
d="M187 667h127v-174h146v-107h-146v-282h146v-107h-146v-184h-127v184h-147v107h147v282h-147v107h147v174z" />
    <glyph glyph-name="periodcentered" unicode="&#xb7;" horiz-adv-x="275" 
d="M138 333c49 0 84 -36 84 -86c0 -47 -36 -83 -85 -83c-48 0 -84 36 -84 85s36 84 85 84z" />
    <glyph glyph-name="periodcentered" unicode="&#x2219;" horiz-adv-x="275" 
d="M138 333c49 0 84 -36 84 -86c0 -47 -36 -83 -85 -83c-48 0 -84 36 -84 85s36 84 85 84z" />
    <glyph glyph-name="paragraph" unicode="&#xb6;" 
d="M216 -105v413h-15c-102 0 -174 74 -174 177c0 66 31 124 82 155c30 17 73 27 122 27h209v-772h-72v725h-79v-725h-73z" />
    <glyph glyph-name="bullet" unicode="&#x2022;" horiz-adv-x="667" 
d="M337 477c74 0 136 -63 136 -138c0 -77 -62 -139 -138 -139s-139 62 -139 138c0 78 62 139 141 139z" />
    <glyph glyph-name="quotesinglbase" unicode="&#x201a;" horiz-adv-x="252" 
d="M221 119l-77 -228l-105 24l47 238z" />
    <glyph glyph-name="quotedblbase" unicode="&#x201e;" horiz-adv-x="449" 
d="M221 119l-77 -228l-105 24l47 238zM418 119l-78 -228l-104 24l47 238z" />
    <glyph glyph-name="quotedblright" unicode="&#x201d;" horiz-adv-x="449" 
d="M221 646l-77 -228l-105 24l47 238zM418 646l-78 -228l-104 24l47 238z" />
    <glyph glyph-name="guillemotright" unicode="&#xbb;" horiz-adv-x="426" 
d="M301 244l-94 163h93l93 -163l-93 -167h-93zM134 244l-94 163h94l92 -163l-92 -167h-94z" />
    <glyph glyph-name="ellipsis" unicode="&#x2026;" horiz-adv-x="825" 
d="M138 154c49 0 84 -36 84 -86c0 -47 -36 -83 -85 -83c-48 0 -84 36 -84 85s36 84 85 84zM413 154c49 0 84 -36 84 -86c0 -47 -36 -83 -85 -83c-48 0 -84 36 -84 85s36 84 85 84zM688 154c49 0 84 -36 84 -86c0 -47 -36 -83 -85 -83c-48 0 -84 36 -84 85s36 84 85 84z" />
    <glyph glyph-name="perthousand" unicode="&#x2030;" horiz-adv-x="1070" 
d="M302 547v-106c0 -85 -46 -131 -131 -131c-42 0 -79 12 -102 33c-23 23 -32 54 -32 118v78c0 51 9 82 30 104c22 24 59 37 100 37c38 0 71 -11 96 -32c27 -24 39 -53 39 -101zM130 539v-89c0 -28 1 -33 5 -42c5 -11 19 -17 36 -17c31 0 40 15 40 63v85c0 45 -9 58 -40 58
c-32 0 -41 -12 -41 -58zM702 223v-105c0 -85 -46 -131 -131 -131c-42 0 -79 12 -102 33c-23 23 -32 54 -32 117v79c0 51 9 82 30 104c23 24 59 37 100 37c39 0 71 -11 96 -32c27 -24 39 -54 39 -102zM530 216v-90c0 -27 1 -32 5 -41c5 -11 19 -17 36 -17c31 0 40 15 40 62
v86c0 45 -9 58 -40 58c-32 0 -41 -13 -41 -58zM607 654l-432 -667l-43 27l431 666zM1034 223v-105c0 -85 -46 -131 -131 -131c-42 0 -79 12 -102 33c-23 23 -32 54 -32 117v79c0 51 9 82 30 104c23 24 59 37 100 37c39 0 71 -11 96 -32c27 -24 39 -54 39 -102zM862 216v-90
c0 -27 1 -32 5 -41c5 -11 19 -17 36 -17c31 0 40 15 40 62v86c0 45 -9 58 -40 58c-32 0 -41 -13 -41 -58z" />
    <glyph glyph-name="questiondown" unicode="&#xbf;" horiz-adv-x="457" 
d="M171 221h154l1 -38c0 -70 -9 -84 -95 -151c-33 -26 -45 -43 -45 -64c0 -29 22 -48 53 -48c35 0 55 22 56 62h140c-3 -126 -76 -199 -200 -199c-120 0 -203 75 -203 183c0 64 25 108 85 152c49 35 55 43 55 73v14c-1 4 -1 9 -1 16zM248 479c48 0 84 -36 84 -85
s-36 -84 -85 -84s-84 36 -84 86c0 47 37 83 85 83z" />
    <glyph glyph-name="grave" unicode="`" 
d="M235 677l83 -142h-89l-140 142h146z" />
    <glyph glyph-name="acute" unicode="&#xb4;" 
d="M265 677h146l-139 -142h-90z" />
    <glyph glyph-name="circumflex" unicode="&#x2c6;" 
d="M251 604l-68 -69h-100l101 142h140l93 -142h-100z" />
    <glyph glyph-name="tilde" unicode="&#x2dc;" 
d="M328 667h97c-9 -77 -51 -127 -108 -127c-21 0 -35 4 -71 18c-6 2 -15 6 -29 11c-3 1 -7 2 -9 2c-11 0 -18 -10 -22 -33h-97c11 83 49 127 108 127c20 0 39 -5 81 -21c16 -6 25 -9 30 -9c11 0 18 11 20 32z" />
    <glyph glyph-name="macron" unicode="&#xaf;" 
d="M88 563v86h323v-86h-323z" />
    <glyph glyph-name="macron" unicode="&#x2c9;" 
d="M88 563v86h323v-86h-323z" />
    <glyph glyph-name="breve" unicode="&#x2d8;" 
d="M318 674h100c-14 -88 -75 -139 -168 -139c-92 0 -154 51 -168 139h100c11 -39 29 -53 68 -53s57 14 68 53z" />
    <glyph glyph-name="dotaccent" unicode="&#x2d9;" 
d="M250 689c43 0 76 -34 76 -78c0 -42 -34 -76 -77 -76s-77 34 -77 77s34 77 78 77z" />
    <glyph glyph-name="dieresis" unicode="&#xa8;" 
d="M141 689c43 0 76 -34 76 -78c0 -42 -34 -76 -77 -76s-77 34 -77 77s34 77 78 77zM360 689c43 0 76 -34 76 -78c0 -42 -34 -76 -77 -76s-77 34 -77 77s34 77 78 77z" />
    <glyph glyph-name="ring" unicode="&#x2da;" 
d="M251 706c55 0 98 -42 98 -98c0 -52 -44 -94 -99 -94s-99 42 -99 96s44 96 100 96zM250 654c-25 0 -45 -20 -45 -44s21 -44 45 -44s45 20 45 43c0 25 -20 45 -45 45z" />
    <glyph glyph-name="cedilla" unicode="&#xb8;" 
d="M215 -205l-61 50c38 17 63 41 94 93l99 -43c-40 -49 -74 -75 -132 -100z" />
    <glyph glyph-name="hungarumlaut" unicode="&#x2dd;" 
d="M179 674h127l-122 -139h-77zM365 674h127l-122 -139h-77z" />
    <glyph glyph-name="ogonek" unicode="&#x2db;" 
d="M225 0h70c-30 -30 -41 -48 -41 -66c0 -17 15 -28 39 -28c11 0 18 1 29 5l7 -66c-23 -6 -37 -8 -59 -8c-60 0 -98 29 -98 75c0 30 20 63 53 88z" />
    <glyph glyph-name="caron" unicode="&#x2c7;" 
d="M249 609l68 68h100l-101 -142h-139l-94 142h100z" />
    <glyph glyph-name="emdash" unicode="&#x2014;" horiz-adv-x="691" 
d="M691 301v-113h-691v113h691z" />
    <glyph glyph-name="AE" unicode="&#xc6;" horiz-adv-x="869" 
d="M611 269v-138h214v-131h-376v117h-222l-61 -117h-173l356 667h476v-131h-214v-136h214v-131h-214zM449 243v299l-156 -299h156z" />
    <glyph glyph-name="ordfeminine" unicode="&#xaa;" horiz-adv-x="403" 
d="M261 523v24h102v-280h-102v24c-24 -23 -56 -35 -94 -35c-83 0 -144 62 -144 146c0 90 65 156 152 156c35 0 62 -11 86 -35zM196 476c-38 0 -65 -30 -65 -72c0 -40 28 -71 65 -71c36 0 66 32 66 73c0 42 -27 70 -66 70z" />
    <glyph glyph-name="Lslash" unicode="&#x141;" horiz-adv-x="462" 
d="M63 363v304h162v-227l87 58v-138l-87 -56v-173h217v-131h-379v227l-53 -38v138z" />
    <glyph glyph-name="Oslash" unicode="&#xd8;" horiz-adv-x="772" 
d="M147 76l-70 -64l-36 41l68 63c-55 72 -76 130 -76 212c0 202 149 352 348 352c94 0 180 -32 240 -90l74 68l36 -43l-70 -64c56 -80 77 -141 77 -220c0 -193 -158 -344 -360 -344c-88 0 -168 31 -231 89zM542 441l-280 -260c35 -30 73 -44 120 -44c108 0 192 86 192 195
c0 42 -9 74 -32 109zM227 225l277 258c-33 31 -74 47 -116 47c-106 0 -190 -87 -190 -197c0 -42 10 -80 29 -108z" />
    <glyph glyph-name="OE" unicode="&#x152;" horiz-adv-x="1005" 
d="M748 269v-138h214v-131h-373v61c-49 -49 -119 -74 -206 -74c-197 0 -346 150 -346 349c0 195 149 344 344 344c84 0 149 -23 208 -72v59h373v-131h-214v-136h214v-131h-214zM402 530c-113 0 -201 -86 -201 -198c0 -111 84 -195 194 -195c64 0 118 26 155 74
c28 36 45 84 45 126c0 109 -84 193 -193 193z" />
    <glyph glyph-name="ordmasculine" unicode="&#xba;" horiz-adv-x="376" 
d="M189 557c95 0 164 -65 164 -154c0 -83 -73 -148 -166 -148c-95 0 -164 63 -164 150c0 90 68 152 166 152zM188 471c-38 0 -63 -26 -63 -65c0 -38 26 -65 63 -65c36 0 62 26 62 63c0 42 -23 67 -62 67z" />
    <glyph glyph-name="ae" unicode="&#xe6;" horiz-adv-x="954" 
d="M775 168l140 -41c-51 -95 -124 -145 -212 -145c-60 0 -96 17 -132 61v-43h-145v43c-38 -42 -88 -62 -155 -62c-147 0 -243 97 -243 245c0 147 100 256 235 256c66 0 121 -21 163 -62v43h145v-43c39 46 72 61 128 61c129 0 229 -110 229 -252c0 -7 0 -19 -1 -32h-356
c12 -50 56 -81 114 -81c40 0 63 13 90 52zM571 278h202c-13 52 -44 77 -98 77c-52 0 -83 -23 -104 -77zM307 356c-66 0 -117 -55 -117 -125c0 -72 54 -130 120 -130c64 0 112 52 112 121c0 78 -47 134 -115 134z" />
    <glyph glyph-name="dotlessi" unicode="&#x131;" horiz-adv-x="265" 
d="M209 463v-463h-152v463h152z" />
    <glyph glyph-name="lslash" unicode="&#x142;" horiz-adv-x="278" 
d="M64 362v305h152v-225l49 35v-125l-49 -32v-320h-152v240l-50 -35v124z" />
    <glyph glyph-name="oslash" unicode="&#xf8;" horiz-adv-x="579" 
d="M118 38l-54 -48l-33 36l51 47c-36 44 -53 94 -53 157c0 146 108 252 256 252c68 0 118 -16 174 -57l52 48l32 -35l-49 -47c38 -54 55 -104 55 -163c0 -138 -113 -246 -259 -246c-66 0 -118 17 -172 56zM388 293l-166 -158c22 -13 43 -19 68 -19c66 0 111 47 111 115
c0 25 -4 42 -13 62zM188 173l167 155c-21 14 -39 19 -64 19c-71 0 -115 -46 -115 -120c0 -20 3 -33 12 -54z" />
    <glyph glyph-name="oe" unicode="&#x153;" horiz-adv-x="900" 
d="M754 164l125 -39c-21 -41 -36 -60 -66 -84c-48 -39 -103 -59 -166 -59c-74 0 -130 21 -184 70c-47 -44 -113 -70 -179 -70c-150 0 -255 104 -255 250c0 147 105 249 256 249c74 0 136 -23 178 -68c47 45 109 68 178 68c105 0 191 -54 227 -143c17 -43 23 -76 23 -143
h-346c3 -25 8 -36 25 -51c21 -18 48 -28 79 -28c44 0 81 17 105 48zM539 276h206c-13 51 -49 79 -103 79c-52 0 -87 -26 -103 -79zM289 347c-60 0 -107 -49 -107 -112c0 -66 48 -119 108 -119c58 0 105 48 105 108c0 70 -45 123 -106 123z" />
    <glyph glyph-name="germandbls" unicode="&#xdf;" horiz-adv-x="549" 
d="M67 337h-42v126h42v49c0 98 83 167 201 167c125 0 210 -66 210 -163c0 -60 -27 -103 -81 -126c79 -27 124 -94 124 -184c0 -58 -17 -113 -46 -153c-31 -42 -76 -62 -137 -62c-33 0 -54 4 -87 18l23 124c10 -2 15 -3 23 -3c46 0 77 34 77 83c0 28 -13 54 -34 70
c-16 11 -32 16 -66 19v136c20 2 29 4 37 10c12 9 20 26 20 43c0 31 -25 56 -56 56c-20 0 -38 -10 -48 -27c-7 -12 -8 -21 -8 -57v-463h-152v337z" />
    <glyph glyph-name="onesuperior" unicode="&#xb9;" horiz-adv-x="332" 
d="M145 544l-68 -28v89l171 75v-413h-103v277z" />
    <glyph glyph-name="logicalnot" unicode="&#xac;" 
d="M305 0v148h-272v145h433v-293h-161z" />
    <glyph glyph-name="mu" unicode="&#xb5;" 
d="M27 -171v651h140v-247c0 -46 3 -63 14 -83c16 -27 41 -42 70 -42c53 0 82 45 82 128v244h140v-480h-140v62c-18 -49 -45 -71 -85 -71c-36 0 -60 17 -81 57v-219h-140z" />
    <glyph glyph-name="mu" unicode="&#x3bc;" 
d="M27 -171v651h140v-247c0 -46 3 -63 14 -83c16 -27 41 -42 70 -42c53 0 82 45 82 128v244h140v-480h-140v62c-18 -49 -45 -71 -85 -71c-36 0 -60 17 -81 57v-219h-140z" />
    <glyph glyph-name="trademark" unicode="&#x2122;" horiz-adv-x="863" 
d="M210 583v-316h-109v316h-95v84h299v-84h-95zM465 479v-212h-109v400h125l106 -207l106 207h125v-400h-109v212l-122 -233z" />
    <glyph glyph-name="Eth" unicode="&#xd0;" horiz-adv-x="648" 
d="M63 400v267h195c115 0 186 -21 247 -73c71 -61 109 -150 109 -254c0 -105 -39 -202 -106 -263c-55 -50 -136 -77 -232 -77h-213v274h-60v126h60zM225 400h97v-126h-97v-141h25c119 0 200 82 200 201c0 60 -24 121 -61 155c-32 29 -83 48 -133 48h-31v-137z" />
    <glyph glyph-name="onehalf" unicode="&#xbd;" horiz-adv-x="791" 
d="M145 544l-68 -28v89l171 75v-413h-103v277zM633 654l-432 -667l-43 27l431 666zM646 85h102v-85h-274l150 222c26 38 32 50 32 66c0 20 -15 33 -37 33c-31 0 -42 -16 -43 -62h-93c-1 6 -1 12 -1 13c0 82 58 137 142 137c79 0 135 -47 135 -112c0 -38 -14 -70 -54 -128z
" />
    <glyph glyph-name="plusminus" unicode="&#xb1;" 
d="M8 404h202v200h80v-200h203v-77h-203v-193h-80v193h-202v77zM8 93h485v-77h-485v77z" />
    <glyph glyph-name="Thorn" unicode="&#xde;" horiz-adv-x="566" 
d="M225 150v-150h-162v667h162v-67h67c159 0 249 -80 249 -219c0 -140 -94 -231 -239 -231h-77zM225 283h45c68 0 107 34 107 92c0 55 -38 92 -96 92h-56v-184z" />
    <glyph glyph-name="onequarter" unicode="&#xbc;" horiz-adv-x="791" 
d="M145 544l-68 -28v89l171 75v-413h-103v277zM633 654l-432 -667l-43 27l431 666zM633 77h-148v80l130 243h116v-241h34v-82h-34v-77h-98v77zM638 156v131l-72 -131h72z" />
    <glyph glyph-name="divide" unicode="&#xf7;" 
d="M8 400h485v-77h-485v77zM252 591c31 0 58 -27 58 -59s-27 -59 -59 -59s-59 27 -59 59c0 33 27 59 60 59zM251 249c31 0 58 -27 58 -59s-27 -59 -59 -59s-59 27 -59 59c0 33 27 59 60 59z" />
    <glyph glyph-name="brokenbar" unicode="&#xa6;" 
d="M167 667h167v-356h-167v356zM167 153h167v-320h-167v320z" />
    <glyph glyph-name="degree" unicode="&#xb0;" 
d="M250 674c90 0 160 -72 160 -162c0 -87 -72 -159 -160 -159s-160 72 -160 160c0 89 72 161 160 161zM249 611c-51 0 -95 -45 -95 -98s43 -97 96 -97c51 0 96 44 96 95c0 56 -43 100 -97 100z" />
    <glyph glyph-name="thorn" unicode="&#xfe;" horiz-adv-x="625" 
d="M57 667h152v-248c36 43 81 63 144 63c44 0 87 -11 124 -33c78 -44 119 -120 119 -221c0 -151 -92 -246 -238 -246c-63 0 -112 19 -149 58v-244h-152v871zM323 356c-67 0 -114 -53 -114 -129c0 -75 44 -125 109 -125c67 0 116 53 116 123c0 76 -47 131 -111 131z" />
    <glyph glyph-name="threequarters" unicode="&#xbe;" horiz-adv-x="791" 
d="M143 585h-105v82h274l-113 -148c62 -9 103 -57 103 -122c0 -80 -61 -139 -144 -139c-50 0 -95 22 -118 58c-12 20 -17 38 -20 73h92c3 -28 19 -44 44 -44c27 0 48 20 48 46c0 28 -20 48 -48 48c-12 0 -23 -3 -32 -9l-62 48zM633 654l-431 -667l-43 27l431 666zM634 77
h-148v80l130 243h116v-241h33v-82h-33v-77h-98v77zM639 156v131l-72 -131h72z" />
    <glyph glyph-name="twosuperior" unicode="&#xb2;" horiz-adv-x="332" 
d="M187 351h102v-85h-274l150 222c27 39 32 50 32 66c0 20 -15 33 -37 33c-31 0 -42 -16 -43 -62h-93c-1 6 -1 12 -1 13c0 82 58 137 142 137c79 0 135 -47 135 -113c0 -37 -13 -69 -54 -127z" />
    <glyph glyph-name="registered" unicode="&#xae;" horiz-adv-x="767" 
d="M237 529h163c42 0 67 -5 89 -18c34 -19 52 -51 52 -90c0 -42 -22 -74 -63 -93c43 -18 55 -43 57 -125c2 -27 5 -46 10 -58h-92c-5 9 -7 23 -9 50c-4 56 -8 73 -19 85c-11 13 -32 20 -54 20h-37v-155h-97v384zM334 470v-114h45c46 0 66 18 66 58c0 39 -19 56 -61 56h-50z
M388 681c186 0 341 -158 341 -348c0 -191 -155 -347 -345 -347c-191 0 -347 156 -347 347c0 194 155 348 351 348zM387 611c-153 0 -274 -122 -274 -278c0 -152 122 -277 270 -277c149 0 270 124 270 277c0 152 -121 278 -266 278z" />
    <glyph glyph-name="minus" unicode="&#x2212;" 
d="M8 400h485v-77h-485v77z" />
    <glyph glyph-name="eth" unicode="&#xf0;" horiz-adv-x="579" 
d="M170 584l70 37c-16 14 -73 41 -104 49l26 43c46 -7 106 -28 150 -53l104 56l33 -57l-72 -36c45 -33 71 -60 97 -103c49 -80 76 -175 76 -269c0 -91 -30 -165 -86 -211c-47 -38 -110 -59 -175 -59c-152 0 -260 104 -260 249c0 147 108 251 260 251c27 0 47 -3 76 -10
c-17 47 -31 69 -69 107l-96 -51zM289 346c-64 0 -107 -46 -107 -114c0 -70 43 -117 107 -117c66 0 107 44 107 115c0 73 -40 116 -107 116z" />
    <glyph glyph-name="multiply" unicode="&#xd7;" 
d="M103 564l146 -148l149 150l56 -57l-150 -148l149 -147l-54 -55l-148 149l-149 -150l-56 56l150 149l-148 146z" />
    <glyph glyph-name="threesuperior" unicode="&#xb3;" horiz-adv-x="332" 
d="M143 585h-105v82h274l-113 -148c62 -9 103 -57 103 -122c0 -80 -61 -139 -144 -139c-50 0 -95 22 -118 58c-12 20 -17 38 -20 73h92c3 -28 19 -44 44 -44c27 0 48 20 48 46c0 28 -20 48 -48 48c-12 0 -23 -3 -32 -9l-62 48z" />
    <glyph glyph-name="copyright" unicode="&#xa9;" horiz-adv-x="767" 
d="M487 296h75c-8 -99 -76 -161 -178 -161c-113 0 -189 81 -189 201c0 118 79 201 192 201c93 0 165 -61 171 -144h-74c-10 37 -46 60 -96 60c-59 0 -96 -45 -96 -118c0 -71 37 -116 95 -116c56 0 93 28 100 77zM388 681c186 0 341 -158 341 -348
c0 -191 -155 -347 -345 -347c-191 0 -347 156 -347 347c0 195 155 348 351 348zM387 611c-153 0 -274 -122 -274 -278c0 -152 122 -277 271 -277c148 0 269 125 269 277s-121 278 -266 278z" />
    <glyph glyph-name="Aacute" unicode="&#xc1;" horiz-adv-x="645" 
d="M438 96h-236l-29 -96h-173l220 667h206l219 -667h-178zM398 227l-78 249l-78 -249h156zM367 864h150l-147 -134h-100z" />
    <glyph glyph-name="Acircumflex" unicode="&#xc2;" horiz-adv-x="645" 
d="M438 96h-236l-29 -96h-173l220 667h206l219 -667h-178zM398 227l-78 249l-78 -249h156zM324 791l-81 -61h-100l115 134h138l106 -134h-100z" />
    <glyph glyph-name="Adieresis" unicode="&#xc4;" horiz-adv-x="645" 
d="M438 96h-236l-29 -96h-173l220 667h206l219 -667h-178zM398 227l-78 249l-78 -249h156zM214 886c43 0 77 -35 77 -79c0 -42 -36 -77 -78 -77c-43 0 -78 35 -78 78s35 78 79 78zM431 886c43 0 77 -35 77 -79c0 -42 -36 -77 -78 -77c-43 0 -78 35 -78 78s35 78 79 78z" />
    <glyph glyph-name="Agrave" unicode="&#xc0;" horiz-adv-x="645" 
d="M438 96h-236l-29 -96h-173l220 667h206l219 -667h-178zM398 227l-78 249l-78 -249h156zM278 864l97 -134h-100l-147 134h150z" />
    <glyph glyph-name="Aring" unicode="&#xc5;" horiz-adv-x="645" 
d="M438 96h-236l-29 -96h-173l220 667h206l219 -667h-178zM398 227l-78 249l-78 -249h156zM324 899c55 0 98 -42 98 -98c0 -52 -44 -94 -99 -94s-99 42 -99 96s44 96 100 96zM323 847c-25 0 -45 -20 -45 -44s21 -44 45 -44s45 20 45 43c0 25 -20 45 -45 45z" />
    <glyph glyph-name="Atilde" unicode="&#xc3;" horiz-adv-x="645" 
d="M438 96h-236l-29 -96h-173l220 667h206l219 -667h-178zM398 227l-78 249l-78 -249h156zM413 861h97c-7 -49 -17 -72 -41 -96c-19 -20 -45 -31 -69 -31c-18 0 -33 3 -75 17c-32 10 -47 14 -54 14c-15 0 -24 -11 -25 -31h-97c5 48 15 70 39 94c20 20 48 32 72 32
c15 0 28 -3 62 -15c45 -16 50 -18 59 -18c15 0 25 11 32 34z" />
    <glyph glyph-name="Ccedilla" unicode="&#xc7;" horiz-adv-x="637" 
d="M522 194l96 -112c-80 -68 -151 -95 -250 -95c-102 0 -183 33 -244 101c-57 63 -90 152 -90 244c0 108 44 209 118 273c59 50 132 75 221 75c104 0 174 -28 253 -101l-104 -109c-47 41 -93 60 -143 60c-107 0 -181 -79 -181 -194c0 -117 79 -199 191 -199
c57 0 98 18 133 57zM278 -214l-70 53c62 27 93 57 103 99l141 -39c-37 -52 -100 -93 -174 -113z" />
    <glyph glyph-name="Eacute" unicode="&#xc9;" horiz-adv-x="459" 
d="M195 536v-136h220v-131h-220v-138h220v-131h-382v667h382v-131h-220zM261 864h150l-147 -134h-100z" />
    <glyph glyph-name="Ecircumflex" unicode="&#xca;" horiz-adv-x="459" 
d="M195 536v-136h220v-131h-220v-138h220v-131h-382v667h382v-131h-220zM230 791l-81 -61h-100l115 134h138l106 -134h-100z" />
    <glyph glyph-name="Edieresis" unicode="&#xcb;" horiz-adv-x="459" 
d="M195 536v-136h220v-131h-220v-138h220v-131h-382v667h382v-131h-220zM121 886c43 0 77 -35 77 -79c0 -42 -36 -77 -78 -77c-43 0 -78 35 -78 78s35 78 79 78zM338 886c43 0 77 -35 77 -79c0 -42 -36 -77 -78 -77c-43 0 -78 35 -78 78s35 78 79 78z" />
    <glyph glyph-name="Egrave" unicode="&#xc8;" horiz-adv-x="459" 
d="M195 536v-136h220v-131h-220v-138h220v-131h-382v667h382v-131h-220zM203 864l97 -134h-100l-147 134h150z" />
    <glyph glyph-name="Iacute" unicode="&#xcd;" horiz-adv-x="289" 
d="M225 667v-667h-162v667h162zM185 864h150l-147 -134h-100z" />
    <glyph glyph-name="Icircumflex" unicode="&#xce;" horiz-adv-x="289" 
d="M226 667v-667h-162v667h162zM146 791l-81 -61h-100l115 134h138l106 -134h-100z" />
    <glyph glyph-name="Idieresis" unicode="&#xcf;" horiz-adv-x="289" 
d="M226 667v-667h-162v667h162zM50 886c43 0 77 -35 77 -79c0 -42 -36 -77 -78 -77c-43 0 -78 35 -78 78s35 78 79 78zM240 886c43 0 77 -35 77 -79c0 -42 -36 -77 -78 -77c-43 0 -78 35 -78 78s35 78 79 78z" />
    <glyph glyph-name="Igrave" unicode="&#xcc;" horiz-adv-x="289" 
d="M225 667v-667h-162v667h162zM105 864l97 -134h-100l-147 134h150z" />
    <glyph glyph-name="Ntilde" unicode="&#xd1;" horiz-adv-x="694" 
d="M225 380v-380h-162v667h162l243 -375v375h162v-667h-162zM437 861h97c-7 -49 -17 -72 -41 -96c-19 -20 -45 -31 -69 -31c-18 0 -33 3 -75 17c-32 10 -47 14 -54 14c-15 0 -24 -11 -25 -31h-97c5 48 15 70 39 94c20 20 48 32 72 32c15 0 28 -3 62 -15
c45 -16 50 -18 59 -18c15 0 25 11 32 34z" />
    <glyph glyph-name="Oacute" unicode="&#xd3;" horiz-adv-x="774" 
d="M395 680c197 0 345 -149 345 -348c0 -96 -46 -195 -120 -260c-62 -56 -142 -85 -229 -85c-199 0 -357 152 -357 344c0 97 39 187 112 256c64 60 152 93 249 93zM389 530c-109 0 -190 -84 -190 -197c0 -110 83 -196 189 -196c104 0 188 86 188 193c0 114 -80 200 -187 200
zM428 864h150l-147 -134h-100z" />
    <glyph glyph-name="Ocircumflex" unicode="&#xd4;" horiz-adv-x="774" 
d="M395 680c197 0 345 -149 345 -348c0 -96 -46 -195 -120 -260c-62 -56 -142 -85 -229 -85c-199 0 -357 152 -357 344c0 97 39 187 112 256c64 60 152 93 249 93zM389 530c-109 0 -190 -84 -190 -197c0 -110 83 -196 189 -196c104 0 188 86 188 193c0 114 -80 200 -187 200
zM388 791l-81 -61h-100l115 134h138l106 -134h-100z" />
    <glyph glyph-name="Odieresis" unicode="&#xd6;" horiz-adv-x="774" 
d="M395 680c197 0 345 -149 345 -348c0 -96 -46 -195 -120 -260c-62 -56 -142 -85 -229 -85c-199 0 -357 152 -357 344c0 97 39 187 112 256c64 60 152 93 249 93zM389 530c-109 0 -190 -84 -190 -197c0 -110 83 -196 189 -196c104 0 188 86 188 193c0 114 -80 200 -187 200
zM279 886c43 0 77 -35 77 -79c0 -42 -36 -77 -78 -77c-43 0 -78 35 -78 78s35 78 79 78zM496 886c43 0 77 -35 77 -79c0 -42 -36 -77 -78 -77c-43 0 -78 35 -78 78s35 78 79 78z" />
    <glyph glyph-name="Ograve" unicode="&#xd2;" horiz-adv-x="774" 
d="M395 680c197 0 345 -149 345 -348c0 -96 -46 -195 -120 -260c-62 -56 -142 -85 -229 -85c-199 0 -357 152 -357 344c0 97 39 187 112 256c64 60 152 93 249 93zM389 530c-109 0 -190 -84 -190 -197c0 -110 83 -196 189 -196c104 0 188 86 188 193c0 114 -80 200 -187 200
zM367 864l97 -134h-100l-147 134h150z" />
    <glyph glyph-name="Otilde" unicode="&#xd5;" horiz-adv-x="774" 
d="M395 680c197 0 345 -149 345 -348c0 -96 -46 -195 -120 -260c-62 -56 -142 -85 -229 -85c-199 0 -357 152 -357 344c0 97 39 187 112 256c64 60 152 93 249 93zM389 530c-109 0 -190 -84 -190 -197c0 -110 83 -196 189 -196c104 0 188 86 188 193c0 114 -80 200 -187 200
zM477 861h97c-7 -49 -17 -72 -41 -96c-19 -20 -45 -31 -69 -31c-18 0 -33 3 -75 17c-32 10 -47 14 -54 14c-15 0 -24 -11 -25 -31h-97c5 48 15 70 39 94c20 20 48 32 72 32c15 0 28 -3 62 -15c45 -16 50 -18 59 -18c15 0 25 11 32 34z" />
    <glyph glyph-name="Scaron" unicode="&#x160;" horiz-adv-x="536" 
d="M27 202h159c-1 -4 -1 -9 -1 -11c0 -33 36 -61 79 -61c39 0 69 24 69 54s-18 44 -96 72c-147 53 -204 113 -204 215c0 125 93 209 231 209c90 0 165 -38 204 -103c19 -31 28 -60 35 -107h-165c-5 46 -29 67 -75 67c-39 0 -66 -21 -66 -53c0 -20 10 -36 31 -48
c12 -8 25 -14 76 -33c76 -28 113 -48 143 -75c36 -34 56 -80 56 -134c0 -124 -96 -207 -239 -207c-146 0 -237 83 -237 215zM267 803l81 61h100l-115 -134h-137l-107 134h100z" />
    <glyph glyph-name="Uacute" unicode="&#xda;" horiz-adv-x="640" 
d="M215 667v-388c0 -50 7 -81 23 -104c17 -23 48 -38 82 -38c37 0 72 18 87 44c12 22 17 50 17 98v388h162v-381c0 -98 -23 -172 -69 -222c-45 -49 -116 -77 -196 -77c-83 0 -158 30 -206 83c-43 48 -62 112 -62 216v381h162zM365 864h150l-147 -134h-100z" />
    <glyph glyph-name="Ucircumflex" unicode="&#xdb;" horiz-adv-x="640" 
d="M215 667v-388c0 -50 7 -81 23 -104c17 -23 48 -38 82 -38c37 0 72 18 87 44c12 22 17 50 17 98v388h162v-381c0 -98 -23 -172 -69 -222c-45 -49 -116 -77 -196 -77c-83 0 -158 30 -206 83c-43 48 -62 112 -62 216v381h162zM321 791l-81 -61h-100l115 134h138l106 -134
h-100z" />
    <glyph glyph-name="Udieresis" unicode="&#xdc;" horiz-adv-x="640" 
d="M215 667v-388c0 -50 7 -81 23 -104c17 -23 48 -38 82 -38c37 0 72 18 87 44c12 22 17 50 17 98v388h162v-381c0 -98 -23 -172 -69 -222c-45 -49 -116 -77 -196 -77c-83 0 -158 30 -206 83c-43 48 -62 112 -62 216v381h162zM211 886c43 0 77 -35 77 -79
c0 -42 -36 -77 -78 -77c-43 0 -78 35 -78 78s35 78 79 78zM428 886c43 0 77 -35 77 -79c0 -42 -36 -77 -78 -77c-43 0 -78 35 -78 78s35 78 79 78z" />
    <glyph glyph-name="Ugrave" unicode="&#xd9;" horiz-adv-x="640" 
d="M215 667v-388c0 -50 7 -81 23 -104c17 -23 48 -38 82 -38c37 0 72 18 87 44c12 22 17 50 17 98v388h162v-381c0 -98 -23 -172 -69 -222c-45 -49 -116 -77 -196 -77c-83 0 -158 30 -206 83c-43 48 -62 112 -62 216v381h162zM299 864l97 -134h-100l-147 134h150z" />
    <glyph glyph-name="Yacute" unicode="&#xdd;" horiz-adv-x="571" 
d="M368 294v-294h-162v294l-219 373h193l108 -205l106 205h190zM333 864h150l-147 -134h-100z" />
    <glyph glyph-name="Ydieresis" unicode="&#x178;" horiz-adv-x="571" 
d="M368 294v-294h-162v294l-219 373h193l108 -205l106 205h190zM177 886c43 0 77 -35 77 -79c0 -42 -36 -77 -78 -77c-43 0 -78 35 -78 78s35 78 79 78zM394 886c43 0 77 -35 77 -79c0 -42 -36 -77 -78 -77c-43 0 -78 35 -78 78s35 78 79 78z" />
    <glyph glyph-name="Zcaron" unicode="&#x17d;" horiz-adv-x="556" 
d="M264 131h253v-131h-504l279 536h-247v131h498zM293 803l81 61h100l-115 -134h-137l-107 134h100z" />
    <glyph glyph-name="aacute" unicode="&#xe1;" horiz-adv-x="622" 
d="M413 413v50h152v-463h-152v52c-42 -48 -91 -70 -157 -70c-132 0 -227 102 -227 243c0 148 101 256 240 256c59 0 99 -19 144 -68zM302 355c-65 0 -111 -53 -111 -127c0 -71 48 -126 110 -126c63 0 114 58 114 128c0 74 -47 125 -113 125zM343 677h146l-139 -142h-90z" />
    <glyph glyph-name="acircumflex" unicode="&#xe2;" horiz-adv-x="622" 
d="M413 413v50h152v-463h-152v52c-42 -48 -91 -70 -157 -70c-132 0 -227 102 -227 243c0 148 101 256 240 256c59 0 99 -19 144 -68zM302 355c-65 0 -111 -53 -111 -127c0 -71 48 -126 110 -126c63 0 114 58 114 128c0 74 -47 125 -113 125zM321 604l-68 -69h-100l101 142
h140l93 -142h-100z" />
    <glyph glyph-name="adieresis" unicode="&#xe4;" horiz-adv-x="622" 
d="M413 413v50h152v-463h-152v52c-42 -48 -91 -70 -157 -70c-132 0 -227 102 -227 243c0 148 101 256 240 256c59 0 99 -19 144 -68zM302 355c-65 0 -111 -53 -111 -127c0 -71 48 -126 110 -126c63 0 114 58 114 128c0 74 -47 125 -113 125zM206 689c43 0 76 -34 76 -78
c0 -42 -34 -76 -77 -76s-77 34 -77 77s34 77 78 77zM425 689c43 0 76 -34 76 -78c0 -42 -34 -76 -77 -76s-77 34 -77 77s34 77 78 77z" />
    <glyph glyph-name="agrave" unicode="&#xe0;" horiz-adv-x="622" 
d="M413 413v50h152v-463h-152v52c-42 -48 -91 -70 -157 -70c-132 0 -227 102 -227 243c0 148 101 256 240 256c59 0 99 -19 144 -68zM302 355c-65 0 -111 -53 -111 -127c0 -71 48 -126 110 -126c63 0 114 58 114 128c0 74 -47 125 -113 125zM295 677l83 -142h-89l-140 142
h146z" />
    <glyph glyph-name="aring" unicode="&#xe5;" horiz-adv-x="622" 
d="M413 413v50h152v-463h-152v52c-42 -48 -91 -70 -157 -70c-132 0 -227 102 -227 243c0 148 101 256 240 256c59 0 99 -19 144 -68zM302 355c-65 0 -111 -53 -111 -127c0 -71 48 -126 110 -126c63 0 114 58 114 128c0 74 -47 125 -113 125zM326 706c55 0 98 -42 98 -98
c0 -52 -44 -94 -99 -94s-99 42 -99 96s44 96 100 96zM325 654c-25 0 -45 -20 -45 -44s21 -44 45 -44s45 20 45 43c0 25 -20 45 -45 45z" />
    <glyph glyph-name="atilde" unicode="&#xe3;" horiz-adv-x="622" 
d="M413 413v50h152v-463h-152v52c-42 -48 -91 -70 -157 -70c-132 0 -227 102 -227 243c0 148 101 256 240 256c59 0 99 -19 144 -68zM302 355c-65 0 -111 -53 -111 -127c0 -71 48 -126 110 -126c63 0 114 58 114 128c0 74 -47 125 -113 125zM388 667h97
c-9 -77 -51 -127 -108 -127c-21 0 -35 4 -71 18c-6 2 -15 6 -29 11c-3 1 -7 2 -9 2c-11 0 -18 -10 -22 -33h-97c11 83 49 127 108 127c20 0 39 -5 81 -21c16 -6 25 -9 30 -9c11 0 18 11 20 32z" />
    <glyph glyph-name="ccedilla" unicode="&#xe7;" horiz-adv-x="473" 
d="M374 149l91 -98c-55 -48 -111 -69 -181 -69c-69 0 -137 27 -185 73c-46 43 -70 104 -70 174c0 147 106 252 253 252c71 0 128 -24 193 -80l-101 -91c-26 26 -52 37 -85 37c-60 0 -107 -50 -107 -113c0 -67 50 -118 115 -118c27 0 46 8 77 33zM217 -205l-61 50
c38 17 63 41 94 93l99 -43c-40 -49 -74 -75 -132 -100z" />
    <glyph glyph-name="eacute" unicode="&#xe9;" horiz-adv-x="563" 
d="M537 199h-351c11 -52 51 -83 106 -83c41 0 74 18 91 51l140 -36c-23 -46 -40 -67 -75 -94c-47 -37 -99 -55 -159 -55c-151 0 -260 105 -260 252s102 247 252 247c153 0 256 -106 256 -263v-19zM185 280h197c-10 48 -46 75 -100 75c-52 0 -87 -27 -97 -75zM308 677h146
l-139 -142h-90z" />
    <glyph glyph-name="ecircumflex" unicode="&#xea;" horiz-adv-x="563" 
d="M537 199h-351c11 -52 51 -83 106 -83c41 0 74 18 91 51l140 -36c-23 -46 -40 -67 -75 -94c-47 -37 -99 -55 -159 -55c-151 0 -260 105 -260 252s102 247 252 247c153 0 256 -106 256 -263v-19zM185 280h197c-10 48 -46 75 -100 75c-52 0 -87 -27 -97 -75zM282 604
l-68 -69h-100l101 142h140l93 -142h-100z" />
    <glyph glyph-name="edieresis" unicode="&#xeb;" horiz-adv-x="563" 
d="M537 199h-351c11 -52 51 -83 106 -83c41 0 74 18 91 51l140 -36c-23 -46 -40 -67 -75 -94c-47 -37 -99 -55 -159 -55c-151 0 -260 105 -260 252s102 247 252 247c153 0 256 -106 256 -263v-19zM185 280h197c-10 48 -46 75 -100 75c-52 0 -87 -27 -97 -75zM172 689
c43 0 76 -34 76 -78c0 -42 -34 -76 -77 -76s-77 34 -77 77s34 77 78 77zM391 689c43 0 76 -34 76 -78c0 -42 -34 -76 -77 -76s-77 34 -77 77s34 77 78 77z" />
    <glyph glyph-name="egrave" unicode="&#xe8;" horiz-adv-x="563" 
d="M537 199h-351c11 -52 51 -83 106 -83c41 0 74 18 91 51l140 -36c-23 -46 -40 -67 -75 -94c-47 -37 -99 -55 -159 -55c-151 0 -260 105 -260 252s102 247 252 247c153 0 256 -106 256 -263v-19zM185 280h197c-10 48 -46 75 -100 75c-52 0 -87 -27 -97 -75zM258 677
l83 -142h-89l-140 142h146z" />
    <glyph glyph-name="iacute" unicode="&#xed;" horiz-adv-x="265" 
d="M209 463v-463h-152v463h152zM167 677h146l-139 -142h-90z" />
    <glyph glyph-name="icircumflex" unicode="&#xee;" horiz-adv-x="265" 
d="M208 463v-463h-152v463h152zM133 604l-68 -69h-100l101 142h140l93 -142h-100z" />
    <glyph glyph-name="idieresis" unicode="&#xef;" horiz-adv-x="265" 
d="M209 463v-463h-152v463h152zM37 689c43 0 76 -34 76 -78c0 -42 -34 -76 -77 -76s-77 34 -77 77s34 77 78 77zM230 689c43 0 76 -34 76 -78c0 -42 -34 -76 -77 -76s-77 34 -77 77s34 77 78 77z" />
    <glyph glyph-name="igrave" unicode="&#xec;" horiz-adv-x="265" 
d="M209 463v-463h-152v463h152zM100 677l83 -142h-89l-140 142h146z" />
    <glyph glyph-name="ntilde" unicode="&#xf1;" horiz-adv-x="542" 
d="M57 463h152v-52c30 51 62 70 118 70c46 0 90 -17 119 -45c31 -31 42 -70 42 -152v-284h-152v283c0 45 -24 72 -63 72s-64 -29 -64 -74v-281h-152v463zM349 667h97c-9 -77 -51 -127 -108 -127c-21 0 -35 4 -71 18c-6 2 -15 6 -29 11c-3 1 -7 2 -9 2c-11 0 -18 -10 -22 -33
h-97c11 83 49 127 108 127c20 0 39 -5 81 -21c16 -6 25 -9 30 -9c11 0 18 11 20 32z" />
    <glyph glyph-name="oacute" unicode="&#xf3;" horiz-adv-x="578" 
d="M290 481c150 0 259 -108 259 -255c0 -137 -115 -244 -261 -244c-150 0 -259 104 -259 248c0 148 107 251 261 251zM290 346c-66 0 -109 -46 -109 -115c0 -68 44 -115 108 -115c63 0 107 46 107 112c0 73 -40 118 -106 118zM304 677h146l-139 -142h-90z" />
    <glyph glyph-name="ocircumflex" unicode="&#xf4;" horiz-adv-x="578" 
d="M290 481c150 0 259 -108 259 -255c0 -137 -115 -244 -261 -244c-150 0 -259 104 -259 248c0 148 107 251 261 251zM290 346c-66 0 -109 -46 -109 -115c0 -68 44 -115 108 -115c63 0 107 46 107 112c0 73 -40 118 -106 118zM290 604l-68 -69h-100l101 142h140l93 -142
h-100z" />
    <glyph glyph-name="odieresis" unicode="&#xf6;" horiz-adv-x="578" 
d="M290 481c150 0 259 -108 259 -255c0 -137 -115 -244 -261 -244c-150 0 -259 104 -259 248c0 148 107 251 261 251zM290 346c-66 0 -109 -46 -109 -115c0 -68 44 -115 108 -115c63 0 107 46 107 112c0 73 -40 118 -106 118zM179 689c43 0 76 -34 76 -78
c0 -42 -34 -76 -77 -76s-77 34 -77 77s34 77 78 77zM398 689c43 0 76 -34 76 -78c0 -42 -34 -76 -77 -76s-77 34 -77 77s34 77 78 77z" />
    <glyph glyph-name="ograve" unicode="&#xf2;" horiz-adv-x="578" 
d="M290 481c150 0 259 -108 259 -255c0 -137 -115 -244 -261 -244c-150 0 -259 104 -259 248c0 148 107 251 261 251zM290 346c-66 0 -109 -46 -109 -115c0 -68 44 -115 108 -115c63 0 107 46 107 112c0 73 -40 118 -106 118zM274 677l83 -142h-89l-140 142h146z" />
    <glyph glyph-name="otilde" unicode="&#xf5;" horiz-adv-x="578" 
d="M290 481c150 0 259 -108 259 -255c0 -137 -115 -244 -261 -244c-150 0 -259 104 -259 248c0 148 107 251 261 251zM290 346c-66 0 -109 -46 -109 -115c0 -68 44 -115 108 -115c63 0 107 46 107 112c0 73 -40 118 -106 118zM367 667h97c-9 -77 -51 -127 -108 -127
c-21 0 -35 4 -71 18c-6 2 -15 6 -29 11c-3 1 -7 2 -9 2c-11 0 -18 -10 -22 -33h-97c11 83 49 127 108 127c20 0 39 -5 81 -21c16 -6 25 -9 30 -9c11 0 18 11 20 32z" />
    <glyph glyph-name="scaron" unicode="&#x161;" horiz-adv-x="423" 
d="M389 326h-141v9c0 20 -20 37 -44 37c-21 0 -36 -13 -36 -31c0 -19 15 -30 53 -41c130 -37 177 -80 177 -161c0 -94 -75 -157 -188 -157s-184 59 -187 156h144c6 -34 17 -47 43 -47c20 0 35 14 35 33c0 22 -15 32 -77 52c-100 32 -145 79 -145 152c0 92 75 153 187 153
c110 0 178 -58 179 -155zM211 609l68 68h100l-101 -142h-139l-94 142h100z" />
    <glyph glyph-name="uacute" unicode="&#xfa;" horiz-adv-x="529" 
d="M327 463h152v-291c0 -71 -16 -111 -55 -143c-39 -31 -93 -47 -158 -47c-69 0 -128 18 -165 51c-35 31 -51 75 -51 139v291h152v-280c0 -48 23 -75 64 -75c38 0 61 24 61 64v291zM291 677h146l-139 -142h-90z" />
    <glyph glyph-name="ucircumflex" unicode="&#xfb;" horiz-adv-x="529" 
d="M327 463h152v-291c0 -71 -16 -111 -55 -143c-39 -31 -93 -47 -158 -47c-69 0 -128 18 -165 51c-35 31 -51 75 -51 139v291h152v-280c0 -48 23 -75 64 -75c38 0 61 24 61 64v291zM265 604l-68 -69h-100l101 142h140l93 -142h-100z" />
    <glyph glyph-name="udieresis" unicode="&#xfc;" horiz-adv-x="529" 
d="M327 463h152v-291c0 -71 -16 -111 -55 -143c-39 -31 -93 -47 -158 -47c-69 0 -128 18 -165 51c-35 31 -51 75 -51 139v291h152v-280c0 -48 23 -75 64 -75c38 0 61 24 61 64v291zM155 689c43 0 76 -34 76 -78c0 -42 -34 -76 -77 -76s-77 34 -77 77s34 77 78 77zM374 689
c43 0 76 -34 76 -78c0 -42 -34 -76 -77 -76s-77 34 -77 77s34 77 78 77z" />
    <glyph glyph-name="ugrave" unicode="&#xf9;" horiz-adv-x="529" 
d="M327 463h152v-291c0 -71 -16 -111 -55 -143c-39 -31 -93 -47 -158 -47c-69 0 -128 18 -165 51c-35 31 -51 75 -51 139v291h152v-280c0 -48 23 -75 64 -75c38 0 61 24 61 64v291zM255 677l83 -142h-89l-140 142h146z" />
    <glyph glyph-name="yacute" unicode="&#xfd;" horiz-adv-x="484" 
d="M236 220l93 243h160l-253 -669h-163l83 215l-161 454h161zM286 677h146l-139 -142h-90z" />
    <glyph glyph-name="ydieresis" unicode="&#xff;" horiz-adv-x="484" 
d="M236 220l93 243h160l-253 -669h-163l83 215l-161 454h161zM133 689c43 0 76 -34 76 -78c0 -42 -34 -76 -77 -76s-77 34 -77 77s34 77 78 77zM352 689c43 0 76 -34 76 -78c0 -42 -34 -76 -77 -76s-77 34 -77 77s34 77 78 77z" />
    <glyph glyph-name="zcaron" unicode="&#x17e;" horiz-adv-x="430" 
d="M246 126h163v-126h-397l172 337h-158v126h392zM223 609l68 68h100l-101 -142h-139l-94 142h100z" />
    <glyph glyph-name="Abreve" unicode="&#x102;" horiz-adv-x="645" 
d="M438 96h-236l-29 -96h-173l220 667h206l219 -667h-178zM398 227l-78 249l-78 -249h156zM142 863h100c22 -35 43 -48 81 -48s59 13 81 48h100c-28 -87 -90 -133 -181 -133s-154 46 -181 133z" />
    <glyph glyph-name="Aogonek" unicode="&#x104;" horiz-adv-x="662" 
d="M414 667l250 -667c-41 -23 -56 -41 -56 -65c0 -25 22 -46 49 -46c13 0 23 3 47 12v-72c-34 -12 -52 -16 -75 -16c-60 0 -108 39 -108 87c0 39 23 69 78 100h-105l-44 120h-239l-44 -120h-170l252 667h165zM413 238l-45 122c-20 62 -29 94 -36 132
c-9 -39 -18 -70 -40 -134l-45 -120h166z" />
    <glyph glyph-name="Cacute" unicode="&#x106;" horiz-adv-x="637" 
d="M522 194l96 -112c-80 -68 -151 -95 -250 -95c-102 0 -183 33 -244 101c-57 63 -90 152 -90 244c0 108 44 209 118 273c59 50 132 75 221 75c104 0 174 -28 253 -101l-104 -109c-47 41 -93 60 -143 60c-107 0 -181 -79 -181 -194c0 -117 79 -199 191 -199
c57 0 98 18 133 57zM398 864h150l-147 -134h-100z" />
    <glyph glyph-name="Ccaron" unicode="&#x10c;" horiz-adv-x="637" 
d="M522 194l96 -112c-80 -68 -151 -95 -250 -95c-102 0 -183 33 -244 101c-57 63 -90 152 -90 244c0 108 44 209 118 273c59 50 132 75 221 75c104 0 174 -28 253 -101l-104 -109c-47 41 -93 60 -143 60c-107 0 -181 -79 -181 -194c0 -117 79 -199 191 -199
c57 0 98 18 133 57zM376 803l81 61h100l-115 -134h-137l-107 134h100z" />
    <glyph glyph-name="Dcaron" unicode="&#x10e;" horiz-adv-x="648" 
d="M63 0v667h195c115 0 186 -21 247 -73c71 -60 109 -150 109 -254s-40 -202 -106 -263c-55 -50 -136 -77 -232 -77h-213zM225 537v-404h25c118 0 200 82 200 202c0 59 -24 120 -61 154c-32 29 -84 48 -133 48h-31zM272 803l81 61h100l-115 -134h-137l-107 134h100z" />
    <glyph glyph-name="Ecaron" unicode="&#x11a;" horiz-adv-x="459" 
d="M195 536v-136h220v-131h-220v-138h220v-131h-382v667h382v-131h-220zM227 803l81 61h100l-115 -134h-137l-107 134h100z" />
    <glyph glyph-name="Edotaccent" unicode="&#x116;" horiz-adv-x="459" 
d="M195 536v-136h220v-131h-220v-138h220v-131h-382v667h382v-131h-220zM229 886c43 0 77 -35 77 -79c0 -42 -36 -77 -78 -77c-43 0 -78 35 -78 78s35 78 79 78z" />
    <glyph glyph-name="Eogonek" unicode="&#x118;" horiz-adv-x="633" 
d="M598 0l-9 -6c-35 -22 -47 -37 -47 -59c0 -25 22 -46 49 -46c13 0 23 3 47 12l-8 -72c-34 -12 -52 -16 -75 -16c-60 0 -108 39 -108 87c0 39 24 69 78 100h-466v667h531v-133h-364v-125h333v-128h-333v-142h372v-139z" />
    <glyph glyph-name="Gbreve" unicode="&#x11e;" horiz-adv-x="762" 
d="M396 380h341c1 -13 1 -29 1 -35c0 -109 -36 -196 -111 -264c-66 -60 -153 -94 -244 -94c-198 0 -349 149 -349 345c0 198 150 348 347 348c112 0 213 -48 281 -132l-123 -95c-43 53 -90 77 -153 77c-107 0 -188 -85 -188 -199c0 -110 86 -197 195 -197
c77 0 140 44 167 115h-164v131zM200 863h100c22 -35 43 -48 81 -48s59 13 81 48h100c-28 -87 -90 -133 -181 -133s-154 46 -181 133z" />
    <glyph glyph-name="Idotaccent" unicode="&#x130;" horiz-adv-x="289" 
d="M225 667v-667h-162v667h162zM144 886c43 0 77 -35 77 -79c0 -42 -36 -77 -78 -77c-43 0 -78 35 -78 78s35 78 79 78z" />
    <glyph glyph-name="Lacute" unicode="&#x139;" horiz-adv-x="462" 
d="M225 131h217v-131h-379v667h162v-536zM194 864h150l-147 -134h-100z" />
    <glyph glyph-name="Lcaron" unicode="&#x13d;" horiz-adv-x="462" 
d="M225 131h217v-131h-379v667h162v-536zM462 649l-73 -211l-100 25l44 217z" />
    <glyph glyph-name="Nacute" unicode="&#x143;" horiz-adv-x="694" 
d="M225 380v-380h-162v667h162l243 -375v375h162v-667h-162zM376 864h150l-147 -134h-100z" />
    <glyph glyph-name="Ncaron" unicode="&#x147;" horiz-adv-x="694" 
d="M225 380v-380h-162v667h162l243 -375v375h162v-667h-162zM345 803l81 61h100l-115 -134h-137l-107 134h100z" />
    <glyph glyph-name="Ohungarumlaut" unicode="&#x150;" horiz-adv-x="774" 
d="M395 680c197 0 345 -149 345 -348c0 -96 -46 -195 -120 -260c-62 -56 -142 -85 -229 -85c-199 0 -357 152 -357 344c0 97 39 187 112 256c64 60 152 93 249 93zM389 530c-109 0 -190 -84 -190 -197c0 -110 83 -196 189 -196c104 0 188 86 188 193c0 114 -80 200 -187 200
zM333 862h131l-131 -132h-85zM519 862h130l-130 -132h-85z" />
    <glyph glyph-name="Racute" unicode="&#x154;" horiz-adv-x="596" 
d="M225 258v-258h-162v667h216c88 0 152 -16 196 -50c46 -36 72 -96 72 -169c0 -101 -43 -169 -129 -203l147 -245h-194zM225 349h52c67 0 106 34 106 92c0 56 -38 93 -96 93h-62v-185zM293 864h150l-147 -134h-100z" />
    <glyph glyph-name="Rcaron" unicode="&#x158;" horiz-adv-x="596" 
d="M225 258v-258h-162v667h216c88 0 152 -16 196 -50c46 -36 72 -96 72 -169c0 -101 -43 -169 -129 -203l147 -245h-194zM225 349h52c67 0 106 34 106 92c0 56 -38 93 -96 93h-62v-185zM267 803l81 61h100l-115 -134h-137l-107 134h100z" />
    <glyph glyph-name="Sacute" unicode="&#x15a;" horiz-adv-x="536" 
d="M27 202h159c-1 -4 -1 -9 -1 -11c0 -33 36 -61 79 -61c39 0 69 24 69 54s-18 44 -96 72c-147 53 -204 113 -204 215c0 125 93 209 231 209c90 0 165 -38 204 -103c19 -31 28 -60 35 -107h-165c-5 46 -29 67 -75 67c-39 0 -66 -21 -66 -53c0 -20 10 -36 31 -48
c12 -8 25 -14 76 -33c76 -28 113 -48 143 -75c36 -34 56 -80 56 -134c0 -124 -96 -207 -239 -207c-146 0 -237 83 -237 215zM302 864h150l-147 -134h-100z" />
    <glyph glyph-name="Scedilla" unicode="&#x15e;" horiz-adv-x="620" 
d="M325 -15l-26 -41c33 5 35 5 46 5c58 0 96 -32 96 -79c0 -57 -52 -96 -129 -96c-48 0 -85 8 -137 29l21 45c40 -16 69 -23 98 -23c32 0 53 17 53 41c0 23 -19 38 -48 38c-14 0 -24 -2 -47 -9l-25 23l44 69c-158 13 -249 99 -250 237h168c2 -41 9 -60 27 -79
c23 -22 58 -34 103 -34c68 0 111 31 111 79c0 40 -17 50 -149 89c-118 34 -148 47 -182 75s-53 74 -53 126c0 122 104 202 261 202c165 0 261 -78 264 -214h-158c-2 56 -42 88 -112 88c-58 0 -94 -24 -94 -63c0 -20 9 -36 26 -45s25 -11 124 -38c83 -22 123 -36 155 -56
c54 -33 83 -85 83 -150c0 -132 -99 -212 -270 -219z" />
    <glyph glyph-name="Scedilla" unicode="&#xf6c1;" horiz-adv-x="620" 
d="M325 -15l-26 -41c33 5 35 5 46 5c58 0 96 -32 96 -79c0 -57 -52 -96 -129 -96c-48 0 -85 8 -137 29l21 45c40 -16 69 -23 98 -23c32 0 53 17 53 41c0 23 -19 38 -48 38c-14 0 -24 -2 -47 -9l-25 23l44 69c-158 13 -249 99 -250 237h168c2 -41 9 -60 27 -79
c23 -22 58 -34 103 -34c68 0 111 31 111 79c0 40 -17 50 -149 89c-118 34 -148 47 -182 75s-53 74 -53 126c0 122 104 202 261 202c165 0 261 -78 264 -214h-158c-2 56 -42 88 -112 88c-58 0 -94 -24 -94 -63c0 -20 9 -36 26 -45s25 -11 124 -38c83 -22 123 -36 155 -56
c54 -33 83 -85 83 -150c0 -132 -99 -212 -270 -219z" />
    <glyph glyph-name="Tcaron" unicode="&#x164;" horiz-adv-x="469" 
d="M316 536v-536h-162v536h-154v131h469v-131h-153zM233 803l81 61h100l-115 -134h-137l-107 134h100z" />
    <glyph glyph-name="Uring" unicode="&#x16e;" horiz-adv-x="640" 
d="M215 667v-388c0 -50 7 -81 23 -104c17 -23 48 -38 82 -38c37 0 72 18 87 44c12 22 17 50 17 98v388h162v-381c0 -98 -23 -172 -69 -222c-45 -49 -116 -77 -196 -77c-83 0 -158 30 -206 83c-43 48 -62 112 -62 216v381h162zM321 899c55 0 98 -42 98 -98
c0 -52 -44 -94 -99 -94s-99 42 -99 96s44 96 100 96zM320 847c-25 0 -45 -20 -45 -44s21 -44 45 -44s45 20 45 43c0 25 -20 45 -45 45z" />
    <glyph glyph-name="Uhungarumlaut" unicode="&#x170;" horiz-adv-x="640" 
d="M215 667v-388c0 -50 7 -81 23 -104c17 -23 48 -38 82 -38c37 0 72 18 87 44c12 22 17 50 17 98v388h162v-381c0 -98 -23 -172 -69 -222c-45 -49 -116 -77 -196 -77c-83 0 -158 30 -206 83c-43 48 -62 112 -62 216v381h162zM264 862h131l-131 -132h-85zM450 862h130
l-130 -132h-85z" />
    <glyph glyph-name="Zacute" unicode="&#x179;" horiz-adv-x="556" 
d="M264 131h253v-131h-504l279 536h-247v131h498zM325 864h150l-147 -134h-100z" />
    <glyph glyph-name="Zdotaccent" unicode="&#x17b;" horiz-adv-x="556" 
d="M264 131h253v-131h-504l279 536h-247v131h498zM293 886c43 0 77 -35 77 -79c0 -42 -36 -77 -78 -77c-43 0 -78 35 -78 78s35 78 79 78z" />
    <glyph glyph-name="Amacron" unicode="&#x100;" horiz-adv-x="645" 
d="M438 96h-236l-29 -96h-173l220 667h206l219 -667h-178zM398 227l-78 249l-78 -249h156zM149 759v86h347v-86h-347z" />
    <glyph glyph-name="Tcommaaccent" unicode="&#x162;" horiz-adv-x="469" 
d="M316 536v-536h-162v536h-154v131h469v-131h-153zM302 -42v-64c0 -88 -35 -119 -138 -122v46c59 3 78 14 80 50h-77v90h135z" />
    <glyph glyph-name="Tcommaaccent" unicode="&#x21a;" horiz-adv-x="469" 
d="M316 536v-536h-162v536h-154v131h469v-131h-153zM302 -42v-64c0 -88 -35 -119 -138 -122v46c59 3 78 14 80 50h-77v90h135z" />
    <glyph glyph-name="Emacron" unicode="&#x112;" horiz-adv-x="459" 
d="M195 536v-136h220v-131h-220v-138h220v-131h-382v667h382v-131h-220zM51 759v86h347v-86h-347z" />
    <glyph glyph-name="Imacron" unicode="&#x12a;" horiz-adv-x="289" 
d="M225 667v-667h-162v667h162zM4 759v86h280v-86h-280z" />
    <glyph glyph-name="Iogonek" unicode="&#x12e;" horiz-adv-x="289" 
d="M226 0h-19c-53 -41 -71 -63 -71 -89c0 -19 17 -30 45 -30c14 0 23 2 38 6l9 -83c-31 -9 -50 -12 -76 -12c-72 0 -121 36 -121 90c0 43 26 83 78 118h-45v667h162v-667z" />
    <glyph glyph-name="Kcommaaccent" unicode="&#x136;" horiz-adv-x="574" 
d="M225 292v-292h-162v667h162v-282l156 282h186l-186 -317l186 -350h-186zM354 -42v-64c0 -88 -35 -119 -138 -122v46c59 3 78 14 80 50h-77v90h135z" />
    <glyph glyph-name="Lcommaaccent" unicode="&#x13b;" horiz-adv-x="462" 
d="M225 131h217v-131h-379v667h162v-536zM298 -42v-64c0 -88 -35 -119 -138 -122v46c59 3 78 14 80 50h-77v90h135z" />
    <glyph glyph-name="Ncommaaccent" unicode="&#x145;" horiz-adv-x="694" 
d="M225 380v-380h-162v667h162l243 -375v375h162v-667h-162zM414 -42v-64c0 -88 -35 -119 -138 -122v46c59 3 78 14 80 50h-77v90h135z" />
    <glyph glyph-name="Omacron" unicode="&#x14c;" horiz-adv-x="774" 
d="M395 680c197 0 345 -149 345 -348c0 -96 -46 -195 -120 -260c-62 -56 -142 -85 -229 -85c-199 0 -357 152 -357 344c0 97 39 187 112 256c64 60 152 93 249 93zM389 530c-109 0 -190 -84 -190 -197c0 -110 83 -196 189 -196c104 0 188 86 188 193c0 114 -80 200 -187 200
zM214 759v86h347v-86h-347z" />
    <glyph glyph-name="Rcommaaccent" unicode="&#x156;" horiz-adv-x="596" 
d="M225 258v-258h-162v667h216c88 0 152 -16 196 -50c46 -36 72 -96 72 -169c0 -101 -43 -169 -129 -203l147 -245h-194zM225 349h52c67 0 106 34 106 92c0 56 -38 93 -96 93h-62v-185zM365 -42v-64c0 -88 -35 -119 -138 -122v46c59 3 78 14 80 50h-77v90h135z" />
    <glyph glyph-name="Gcommaaccent" unicode="&#x122;" horiz-adv-x="762" 
d="M396 380h341c1 -13 1 -29 1 -35c0 -109 -36 -196 -111 -264c-66 -60 -153 -94 -244 -94c-198 0 -349 149 -349 345c0 198 150 348 347 348c112 0 213 -48 281 -132l-123 -95c-43 53 -90 77 -153 77c-107 0 -188 -85 -188 -199c0 -110 86 -197 195 -197
c77 0 140 44 167 115h-164v131zM448 -42v-64c0 -88 -35 -119 -138 -122v46c59 3 78 14 80 50h-77v90h135z" />
    <glyph glyph-name="Umacron" unicode="&#x16a;" horiz-adv-x="640" 
d="M215 667v-388c0 -50 7 -81 23 -104c17 -23 48 -38 82 -38c37 0 72 18 87 44c12 22 17 50 17 98v388h162v-381c0 -98 -23 -172 -69 -222c-45 -49 -116 -77 -196 -77c-83 0 -158 30 -206 83c-43 48 -62 112 -62 216v381h162zM146 759v86h347v-86h-347z" />
    <glyph glyph-name="Uogonek" unicode="&#x172;" horiz-adv-x="640" 
d="M586 667v-382c0 -122 -36 -207 -108 -255c-37 -30 -58 -46 -61 -49c-32 -27 -47 -49 -47 -70c0 -19 17 -30 45 -30c13 0 22 2 37 6l9 -83c-31 -9 -50 -12 -76 -12c-73 0 -121 36 -121 90c0 36 22 75 59 104c-67 0 -128 19 -175 54c-67 49 -95 121 -95 245v382h162v-389
c0 -49 7 -81 23 -103c17 -24 48 -39 82 -39c37 0 72 18 87 45c12 21 17 50 17 97v389h162z" />
    <glyph glyph-name="abreve" unicode="&#x103;" horiz-adv-x="622" 
d="M413 413v50h152v-463h-152v52c-42 -48 -91 -70 -157 -70c-132 0 -227 102 -227 243c0 148 101 256 240 256c59 0 99 -19 144 -68zM302 355c-65 0 -111 -53 -111 -127c0 -71 48 -126 110 -126c63 0 114 58 114 128c0 74 -47 125 -113 125zM392 674h100
c-14 -88 -75 -139 -168 -139c-92 0 -154 51 -168 139h100c11 -39 29 -53 68 -53s57 14 68 53z" />
    <glyph glyph-name="aogonek" unicode="&#x105;" horiz-adv-x="560" 
d="M501 176v-51c0 -70 4 -92 23 -125c-33 -20 -51 -42 -51 -65c0 -25 23 -46 50 -46c12 0 21 2 43 11v-66c-32 -11 -49 -14 -72 -14c-62 0 -104 34 -104 85c0 34 20 62 69 95h-90c-1 4 -3 8 -3 9l-4 7c-1 3 -3 21 -3 44c-42 -52 -89 -73 -162 -73c-108 0 -172 54 -172 146
c0 67 34 112 99 132c35 10 48 13 139 24c77 10 92 19 92 53c0 39 -28 61 -78 61c-54 0 -78 -19 -86 -68h-142c5 108 81 161 229 161c76 0 137 -15 176 -44c38 -27 49 -57 49 -128c0 -11 0 -14 -1 -69c0 -17 0 -43 -1 -79zM356 192v41c-25 -17 -34 -20 -103 -30
c-49 -7 -73 -29 -73 -65c0 -38 27 -61 70 -61c67 0 106 42 106 115z" />
    <glyph glyph-name="cacute" unicode="&#x107;" horiz-adv-x="473" 
d="M374 149l91 -98c-55 -48 -111 -69 -181 -69c-69 0 -137 27 -185 73c-46 43 -70 104 -70 174c0 147 106 252 253 252c71 0 128 -24 193 -80l-101 -91c-26 26 -52 37 -85 37c-60 0 -107 -50 -107 -113c0 -67 50 -118 115 -118c27 0 46 8 77 33zM309 677h146l-139 -142h-90z
" />
    <glyph glyph-name="ccaron" unicode="&#x10d;" horiz-adv-x="473" 
d="M374 149l91 -98c-55 -48 -111 -69 -181 -69c-69 0 -137 27 -185 73c-46 43 -70 104 -70 174c0 147 106 252 253 252c71 0 128 -24 193 -80l-101 -91c-26 26 -52 37 -85 37c-60 0 -107 -50 -107 -113c0 -67 50 -118 115 -118c27 0 46 8 77 33zM285 609l68 68h100
l-101 -142h-139l-94 142h100z" />
    <glyph glyph-name="dcaron" unicode="&#x10f;" horiz-adv-x="800" 
d="M414 421v246h152v-667h-152v52c-21 -29 -33 -40 -54 -50c-27 -13 -60 -20 -96 -20c-142 0 -236 98 -236 245c0 79 26 142 77 189c45 41 104 65 161 65c61 0 104 -18 148 -60zM304 355c-66 0 -114 -55 -114 -129c0 -70 49 -124 114 -124c62 0 110 54 110 124
c0 74 -47 129 -110 129zM768 649l-73 -211l-100 25l44 217z" />
    <glyph glyph-name="ecaron" unicode="&#x11b;" horiz-adv-x="563" 
d="M537 199h-351c11 -52 51 -83 106 -83c41 0 74 18 91 51l140 -36c-23 -46 -40 -67 -75 -94c-47 -37 -99 -55 -159 -55c-151 0 -260 105 -260 252s102 247 252 247c153 0 256 -106 256 -263v-19zM185 280h197c-10 48 -46 75 -100 75c-52 0 -87 -27 -97 -75zM290 609l68 68
h100l-101 -142h-139l-94 142h100z" />
    <glyph glyph-name="edotaccent" unicode="&#x117;" horiz-adv-x="563" 
d="M537 199h-351c11 -52 51 -83 106 -83c41 0 74 18 91 51l140 -36c-23 -46 -40 -67 -75 -94c-47 -37 -99 -55 -159 -55c-151 0 -260 105 -260 252s102 247 252 247c153 0 256 -106 256 -263v-19zM185 280h197c-10 48 -46 75 -100 75c-52 0 -87 -27 -97 -75zM291 689
c43 0 76 -34 76 -78c0 -42 -34 -76 -77 -76s-77 34 -77 77s34 77 78 77z" />
    <glyph glyph-name="eogonek" unicode="&#x119;" horiz-adv-x="564" 
d="M386 150h142c-26 -94 -113 -159 -218 -162c-22 -17 -33 -36 -33 -55c0 -24 23 -45 50 -45c12 0 21 2 43 11v-66c-33 -11 -49 -14 -72 -14c-62 0 -104 34 -104 86c0 30 16 55 55 84c-136 16 -222 113 -222 249c0 150 107 258 256 258c155 0 255 -106 255 -272
c0 -1 0 -8 -1 -14h-364c3 -77 47 -125 115 -125c48 0 75 18 98 65zM173 288h216c-4 70 -43 110 -105 110s-101 -38 -111 -110z" />
    <glyph glyph-name="gbreve" unicode="&#x11f;" horiz-adv-x="598" 
d="M393 416v47h148v-412c0 -102 -17 -159 -62 -204c-47 -47 -120 -74 -202 -74c-93 0 -170 31 -239 95l92 94c38 -42 85 -63 139 -63c77 0 124 48 124 129v23c-41 -46 -95 -69 -160 -69c-64 0 -127 29 -169 79c-34 41 -53 100 -53 166c0 152 96 254 239 254
c62 0 105 -20 143 -65zM283 347c-65 0 -110 -47 -110 -113c0 -69 47 -118 112 -118c34 0 66 14 86 36c13 15 20 38 20 67c0 80 -40 128 -108 128zM367 674h100c-14 -88 -75 -139 -168 -139c-92 0 -154 51 -168 139h100c11 -39 29 -53 68 -53s57 14 68 53z" />
    <glyph glyph-name="lacute" unicode="&#x13a;" horiz-adv-x="265" 
d="M209 0h-152v667h152v-667zM177 864h151l-147 -134h-100z" />
    <glyph glyph-name="lcaron" unicode="&#x13e;" horiz-adv-x="408" 
d="M209 0h-152v667h152v-667zM435 649l-73 -211l-100 25l44 217z" />
    <glyph glyph-name="nacute" unicode="&#x144;" horiz-adv-x="542" 
d="M57 463h152v-52c30 51 62 70 118 70c46 0 90 -17 119 -45c31 -31 42 -70 42 -152v-284h-152v283c0 45 -24 72 -63 72s-64 -29 -64 -74v-281h-152v463zM286 677h146l-139 -142h-90z" />
    <glyph glyph-name="ncaron" unicode="&#x148;" horiz-adv-x="542" 
d="M57 463h152v-52c30 51 62 70 118 70c46 0 90 -17 119 -45c31 -31 42 -70 42 -152v-284h-152v283c0 45 -24 72 -63 72s-64 -29 -64 -74v-281h-152v463zM270 609l68 68h100l-101 -142h-139l-94 142h100z" />
    <glyph glyph-name="ohungarumlaut" unicode="&#x151;" horiz-adv-x="578" 
d="M290 481c150 0 259 -108 259 -255c0 -137 -115 -244 -261 -244c-150 0 -259 104 -259 248c0 148 107 251 261 251zM290 346c-66 0 -109 -46 -109 -115c0 -68 44 -115 108 -115c63 0 107 46 107 112c0 73 -40 118 -106 118zM218 674h127l-122 -139h-77zM404 674h127
l-122 -139h-77z" />
    <glyph glyph-name="racute" unicode="&#x155;" horiz-adv-x="341" 
d="M57 463h152v-63c12 34 21 48 40 61c18 13 43 20 67 20h15v-156c-11 1 -22 2 -28 2c-34 0 -63 -14 -79 -37c-12 -16 -15 -33 -15 -72v-218h-152v463zM224 677h146l-139 -142h-90z" />
    <glyph glyph-name="sacute" unicode="&#x15b;" horiz-adv-x="423" 
d="M389 326h-141v9c0 20 -20 37 -44 37c-21 0 -36 -13 -36 -31c0 -19 15 -30 53 -41c130 -37 177 -80 177 -161c0 -94 -75 -157 -188 -157s-184 59 -187 156h144c6 -34 17 -47 43 -47c20 0 35 14 35 33c0 22 -15 32 -77 52c-100 32 -145 79 -145 152c0 92 75 153 187 153
c110 0 178 -58 179 -155zM244 677h146l-139 -142h-90z" />
    <glyph glyph-name="scommaaccent" unicode="&#x219;" horiz-adv-x="423" 
d="M389 326h-141v9c0 20 -20 37 -44 37c-21 0 -36 -13 -36 -31c0 -19 15 -30 53 -41c130 -37 177 -80 177 -161c0 -94 -75 -157 -188 -157s-184 59 -187 156h144c6 -34 17 -47 43 -47c20 0 35 14 35 33c0 22 -15 32 -77 52c-100 32 -145 79 -145 152c0 92 75 153 187 153
c110 0 178 -58 179 -155zM277 -58v-58c0 -87 -27 -112 -134 -122v47c4 0 8 1 8 1c12 2 24 4 35 5c20 4 31 19 33 43h-72v84h130z" />
    <glyph glyph-name="tcaron" unicode="&#x165;" horiz-adv-x="412" 
d="M215 340v-184c0 -21 11 -30 37 -30h16v-126h-117c-63 0 -88 28 -88 97v243h-47v126h47v114h152v-114h53v-126h-53zM438 748l-73 -211l-100 25l44 217z" />
    <glyph glyph-name="uring" unicode="&#x16f;" horiz-adv-x="529" 
d="M327 463h152v-291c0 -71 -16 -111 -55 -143c-39 -31 -93 -47 -158 -47c-69 0 -128 18 -165 51c-35 31 -51 75 -51 139v291h152v-280c0 -48 23 -75 64 -75c38 0 61 24 61 64v291zM265 706c55 0 98 -42 98 -98c0 -52 -44 -94 -99 -94s-99 42 -99 96s44 96 100 96zM264 654
c-25 0 -45 -20 -45 -44s21 -44 45 -44s45 20 45 43c0 25 -20 45 -45 45z" />
    <glyph glyph-name="uhungarumlaut" unicode="&#x171;" horiz-adv-x="529" 
d="M327 463h152v-291c0 -71 -16 -111 -55 -143c-39 -31 -93 -47 -158 -47c-69 0 -128 18 -165 51c-35 31 -51 75 -51 139v291h152v-280c0 -48 23 -75 64 -75c38 0 61 24 61 64v291zM194 674h127l-122 -139h-77zM380 674h127l-122 -139h-77z" />
    <glyph glyph-name="zacute" unicode="&#x17a;" horiz-adv-x="430" 
d="M246 126h163v-126h-397l172 337h-158v126h392zM249 677h146l-139 -142h-90z" />
    <glyph glyph-name="zdotaccent" unicode="&#x17c;" horiz-adv-x="430" 
d="M246 126h163v-126h-397l172 337h-158v126h392zM225 689c43 0 76 -34 76 -78c0 -42 -34 -76 -77 -76s-77 34 -77 77s34 77 78 77z" />
    <glyph glyph-name="tcommaaccent" unicode="&#x163;" horiz-adv-x="295" 
d="M215 340v-184c0 -21 11 -30 37 -30h16v-126h-117c-63 0 -88 28 -88 97v243h-47v126h47v114h152v-114h53v-126h-53zM228 -58v-58c0 -87 -27 -112 -134 -122v47c4 0 8 1 8 1c12 2 24 4 35 5c20 4 31 19 33 43h-72v84h130z" />
    <glyph glyph-name="tcommaaccent" unicode="&#x21b;" horiz-adv-x="295" 
d="M215 340v-184c0 -21 11 -30 37 -30h16v-126h-117c-63 0 -88 28 -88 97v243h-47v126h47v114h152v-114h53v-126h-53zM228 -58v-58c0 -87 -27 -112 -134 -122v47c4 0 8 1 8 1c12 2 24 4 35 5c20 4 31 19 33 43h-72v84h130z" />
    <glyph glyph-name="amacron" unicode="&#x101;" horiz-adv-x="622" 
d="M413 413v50h152v-463h-152v52c-42 -48 -91 -70 -157 -70c-132 0 -227 102 -227 243c0 148 101 256 240 256c59 0 99 -19 144 -68zM302 355c-65 0 -111 -53 -111 -127c0 -71 48 -126 110 -126c63 0 114 58 114 128c0 74 -47 125 -113 125zM149 563v86h323v-86h-323z" />
    <glyph glyph-name="emacron" unicode="&#x113;" horiz-adv-x="563" 
d="M537 199h-351c11 -52 51 -83 106 -83c41 0 74 18 91 51l140 -36c-23 -46 -40 -67 -75 -94c-47 -37 -99 -55 -159 -55c-151 0 -260 105 -260 252s102 247 252 247c153 0 256 -106 256 -263v-19zM185 280h197c-10 48 -46 75 -100 75c-52 0 -87 -27 -97 -75zM120 563v86h323
v-86h-323z" />
    <glyph glyph-name="imacron" unicode="&#x12b;" horiz-adv-x="265" 
d="M208 463v-463h-152v463h152zM4 563v86h257v-86h-257z" />
    <glyph glyph-name="kcommaaccent" unicode="&#x137;" horiz-adv-x="488" 
d="M209 185v-185h-152v667h152v-369l103 165h172l-135 -220l135 -243h-172zM309 -58v-58c0 -87 -27 -112 -134 -122v47c4 0 8 1 8 1c12 2 24 4 35 5c20 4 31 19 33 43h-72v84h130z" />
    <glyph glyph-name="lcommaaccent" unicode="&#x13c;" horiz-adv-x="265" 
d="M209 0h-152v667h152v-667zM198 -58v-58c0 -87 -27 -112 -134 -122v47c4 0 8 1 8 1c12 2 24 4 35 5c20 4 31 19 33 43h-72v84h130z" />
    <glyph glyph-name="ncommaaccent" unicode="&#x146;" horiz-adv-x="542" 
d="M57 463h152v-52c30 51 62 70 118 70c46 0 90 -17 119 -45c31 -31 42 -70 42 -152v-284h-152v283c0 45 -24 72 -63 72s-64 -29 -64 -74v-281h-152v463zM336 -58v-58c0 -87 -27 -112 -134 -122v47c4 0 8 1 8 1c12 2 24 4 35 5c20 4 31 19 33 43h-72v84h130z" />
    <glyph glyph-name="omacron" unicode="&#x14d;" horiz-adv-x="578" 
d="M290 481c150 0 259 -108 259 -255c0 -137 -115 -244 -261 -244c-150 0 -259 104 -259 248c0 148 107 251 261 251zM290 346c-66 0 -109 -46 -109 -115c0 -68 44 -115 108 -115c63 0 107 46 107 112c0 73 -40 118 -106 118zM127 563v86h323v-86h-323z" />
    <glyph glyph-name="rcommaaccent" unicode="&#x157;" horiz-adv-x="341" 
d="M57 463h152v-63c12 34 21 48 40 61c18 13 43 20 67 20h15v-156c-11 1 -22 2 -28 2c-34 0 -63 -14 -79 -37c-12 -16 -15 -33 -15 -72v-218h-152v463zM200 -58v-58c0 -87 -27 -112 -134 -122v47c4 0 8 1 8 1c12 2 24 4 35 5c20 4 31 19 33 43h-72v84h130z" />
    <glyph glyph-name="umacron" unicode="&#x16b;" horiz-adv-x="529" 
d="M327 463h152v-291c0 -71 -16 -111 -55 -143c-39 -31 -93 -47 -158 -47c-69 0 -128 18 -165 51c-35 31 -51 75 -51 139v291h152v-280c0 -48 23 -75 64 -75c38 0 61 24 61 64v291zM103 563v86h323v-86h-323z" />
    <glyph glyph-name="uogonek" unicode="&#x173;" horiz-adv-x="529" 
d="M479 463v-291c0 -71 -15 -109 -54 -142c-63 -65 -70 -74 -70 -96c0 -17 15 -28 39 -28c11 0 18 1 29 5l7 -66c-23 -6 -37 -8 -59 -8c-60 0 -98 29 -98 75c0 25 10 46 35 72c-19 -1 -31 -2 -45 -2c-66 0 -125 19 -162 51c-35 30 -51 75 -51 139v291h152v-280
c0 -48 23 -75 64 -75c38 0 61 24 61 64v291h152z" />
    <glyph glyph-name="rcaron" unicode="&#x159;" horiz-adv-x="341" 
d="M57 463h152v-63c12 34 21 48 40 61c18 13 43 20 67 20h15v-156c-11 1 -22 2 -28 2c-34 0 -63 -14 -79 -37c-12 -16 -15 -33 -15 -72v-218h-152v463zM190 609l68 68h100l-101 -142h-139l-94 142h100z" />
    <glyph glyph-name="scedilla" unicode="&#x15f;" horiz-adv-x="504" 
d="M263 -13l-25 -40c22 5 32 6 44 6c52 0 88 -29 88 -72c0 -54 -49 -91 -119 -91c-43 0 -83 8 -127 26l19 42c37 -15 64 -21 92 -21c29 0 48 15 48 39c0 22 -17 37 -44 37c-12 0 -23 -2 -42 -9l-24 20l41 64c-124 10 -196 73 -199 174h144c4 -54 33 -78 93 -78
c48 0 78 21 78 56c0 31 -17 40 -107 59c-75 16 -108 26 -137 43c-38 22 -59 60 -59 106c0 95 79 148 220 148c86 0 148 -21 185 -62c22 -24 31 -48 34 -93h-138c-7 47 -29 64 -83 64c-44 0 -69 -16 -69 -45c0 -31 18 -40 117 -59c138 -27 186 -65 186 -151
c0 -98 -79 -158 -216 -163z" />
    <glyph glyph-name="scedilla" unicode="&#xf6c2;" horiz-adv-x="504" 
d="M263 -13l-25 -40c22 5 32 6 44 6c52 0 88 -29 88 -72c0 -54 -49 -91 -119 -91c-43 0 -83 8 -127 26l19 42c37 -15 64 -21 92 -21c29 0 48 15 48 39c0 22 -17 37 -44 37c-12 0 -23 -2 -42 -9l-24 20l41 64c-124 10 -196 73 -199 174h144c4 -54 33 -78 93 -78
c48 0 78 21 78 56c0 31 -17 40 -107 59c-75 16 -108 26 -137 43c-38 22 -59 60 -59 106c0 95 79 148 220 148c86 0 148 -21 185 -62c22 -24 31 -48 34 -93h-138c-7 47 -29 64 -83 64c-44 0 -69 -16 -69 -45c0 -31 18 -40 117 -59c138 -27 186 -65 186 -151
c0 -98 -79 -158 -216 -163z" />
    <glyph glyph-name="gcommaaccent" unicode="&#x123;" horiz-adv-x="598" 
d="M393 416v47h148v-412c0 -102 -17 -159 -62 -204c-47 -47 -120 -74 -202 -74c-93 0 -170 31 -239 95l92 94c38 -42 85 -63 139 -63c77 0 124 48 124 129v23c-41 -46 -95 -69 -160 -69c-64 0 -127 29 -169 79c-34 41 -53 100 -53 166c0 152 96 254 239 254
c62 0 105 -20 143 -65zM283 347c-65 0 -110 -47 -110 -113c0 -69 47 -118 112 -118c34 0 66 14 86 36c13 15 20 38 20 67c0 80 -40 128 -108 128zM211 580l73 210l100 -24l-44 -218z" />
    <glyph glyph-name="iogonek" unicode="&#x12f;" horiz-adv-x="265" 
d="M209 0h-31c-31 -31 -42 -48 -42 -66c0 -17 15 -28 39 -28c11 0 18 1 30 5l7 -66c-24 -6 -38 -8 -60 -8c-60 0 -98 29 -98 75c0 31 18 61 54 88h-51v463h152v-463zM134 678c46 0 80 -34 80 -82c0 -46 -35 -80 -81 -80c-47 0 -81 34 -81 81s34 81 82 81z" />
    <glyph glyph-name="Scommaaccent" unicode="&#x218;" horiz-adv-x="536" 
d="M27 202h159c-1 -4 -1 -9 -1 -11c0 -33 36 -61 79 -61c39 0 69 24 69 54s-18 44 -96 72c-147 53 -204 113 -204 215c0 125 93 209 231 209c90 0 165 -38 204 -103c19 -31 28 -60 35 -107h-165c-5 46 -29 67 -75 67c-39 0 -66 -21 -66 -53c0 -20 10 -36 31 -48
c12 -8 25 -14 76 -33c76 -28 113 -48 143 -75c36 -34 56 -80 56 -134c0 -124 -96 -207 -239 -207c-146 0 -237 83 -237 215zM332 -42v-64c0 -88 -35 -119 -138 -122v46c59 3 78 14 80 50h-77v90h135z" />
    <glyph glyph-name="Dcroat" unicode="&#x110;" horiz-adv-x="648" 
d="M63 400v267h195c115 0 186 -21 247 -73c71 -61 109 -150 109 -254c0 -105 -39 -202 -106 -263c-55 -50 -136 -77 -232 -77h-213v274h-60v126h60zM225 400h97v-126h-97v-141h25c119 0 200 82 200 201c0 60 -24 121 -61 155c-32 29 -83 48 -133 48h-31v-137z" />
    <glyph glyph-name="dcroat" unicode="&#x111;" horiz-adv-x="623" 
d="M414 619v48h152v-48h54v-111h-54v-508h-152v52c-21 -29 -33 -40 -54 -50c-27 -13 -60 -20 -96 -20c-141 0 -235 98 -235 245c0 79 26 142 76 189c46 41 104 65 162 65c60 0 103 -18 147 -60v87h-93v111h93zM304 355c-65 0 -113 -55 -113 -129c0 -70 49 -124 114 -124
c61 0 109 54 109 124c0 74 -47 129 -110 129z" />
    <glyph glyph-name="middot" unicode="&#xe000;" horiz-adv-x="275" 
d="M138 333c49 0 84 -36 84 -86c0 -47 -36 -83 -85 -83c-48 0 -84 36 -84 85s36 84 85 84z" />
    <glyph glyph-name="commaaccent" unicode="&#xf6c3;" 
d="M315 -58v-58c0 -87 -27 -112 -134 -122v47c4 0 8 1 8 1c12 2 24 4 35 5c20 4 31 19 33 43h-72v84h130z" />
    <glyph glyph-name="nbspace" unicode="&#xe001;" horiz-adv-x="300" 
 />
    <glyph glyph-name="lozenge" unicode="&#x25ca;" horiz-adv-x="667" 
d="M334 693l259 -359l-259 -360l-260 360zM334 604l-197 -270l197 -271l197 271z" />
    <glyph glyph-name="Delta" unicode="&#x394;" horiz-adv-x="653" 
d="M9 0l236 667h162l238 -667h-636zM209 136h233l-115 366z" />
    <glyph glyph-name="Delta" unicode="&#x2206;" horiz-adv-x="653" 
d="M9 0l236 667h162l238 -667h-636zM209 136h233l-115 366z" />
    <glyph glyph-name="notequal" unicode="&#x2260;" 
d="M255 486l70 131l102 -56l-42 -75h81v-138h-137l-39 -73h176v-138h-227l-60 -111l-102 56l32 55h-76v138h126l40 73h-165v138h221z" />
    <glyph glyph-name="radical" unicode="&#x221a;" horiz-adv-x="667" 
d="M667 827v-130h-164l-174 -697h-183l-56 249h-90v130h179l25 -101c6 -24 14 -86 20 -143h8c16 116 32 203 60 310l96 382h279z" />
    <glyph glyph-name="lessequal" unicode="&#x2264;" 
d="M466 655v-154l-253 -77l253 -75v-155l-433 162v138zM466 168v-145h-433v145h433z" />
    <glyph glyph-name="greaterequal" unicode="&#x2265;" 
d="M33 194v155l253 75l-253 77v154l433 -161v-138zM33 23v145h433v-145h-433z" />
    <glyph glyph-name="summation" unicode="&#x2211;" horiz-adv-x="667" 
d="M626 750v-260h-141l-17 116h-258l241 -341l-240 -371h266l9 121h149v-265h-601v166l231 348l-231 320v166h592z" />
    <glyph glyph-name="partialdiff" unicode="&#x2202;" 
d="M56 543l18 121c132 -14 216 -46 287 -107c82 -72 123 -168 123 -292c0 -102 -29 -174 -89 -223c-40 -33 -92 -50 -149 -50c-133 0 -230 97 -230 229c0 120 87 211 200 211c51 0 81 -10 118 -40c-32 57 -48 75 -94 102c-62 30 -117 44 -184 49zM251 317
c-53 0 -96 -45 -96 -101c0 -54 43 -100 93 -100c52 0 94 45 94 101s-40 100 -91 100z" />
    </font>
</defs>
</svg>
