
<svg width="38px" height="37px" viewBox="0 0 38 37" version="1.1" xmlns="http://www.w3.org/2000/svg" xmlns:xlink="http://www.w3.org/1999/xlink">
    <g id="Page-1" stroke="none" stroke-width="1" fill="none" fill-rule="evenodd">
        <g id="shop--about" transform="translate(-283.000000, -587.000000)" fill="#000000">
            <g id="header" transform="translate(0.000000, 81.000000)">
                <g id="hiking" transform="translate(283.000000, 506.000000)">
                    <path d="M11.9975429,10.2300446 C11.9975429,11.1715523 12.7535429,11.9252138 13.6712571,11.9252138 C14.6169714,11.9252138 15.3449714,11.1715523 15.3449714,10.2300446 C15.3449714,9.31586 14.6169714,8.56276769 13.6712571,8.56276769 C12.7535429,8.56276769 11.9975429,9.31586 11.9975429,10.2300446" id="Fill-5"></path>
                    <path d="M12.1331429,18.4055077 C12.4828571,17.7332462 12.8611429,17.0609846 13.2125714,16.3614 L13.6708571,17.0883077 L13.9954286,17.5989077 L16.884,18.7020769 L14.428,22.9775692 C14.1845714,22.4128923 13.9411429,21.8755385 13.6708571,21.3370462 C13.1857143,20.3420308 12.672,19.3737692 12.1331429,18.4055077 Z M6.49028571,28.1416308 L7.732,28.9482308 L10.9988571,21.8482154 L12.2674286,23.2194923 L12.888,25.9091077 L11.3765714,28.8138923 L12.0514286,28.9482308 L13.2125714,27.1460462 L13.6708571,28.4911385 L13.8342857,29.0017385 L15.696,28.5446462 L14.6434286,24.2150769 L17.64,18.9434308 L17.856,19.0248308 L18.1257143,19.1050923 L18.4777143,18.1100769 C18.288,17.9757385 18.0725714,17.8414 17.856,17.7064923 C16.9114286,17.0883077 15.9931429,16.5230615 15.0217143,15.9048769 C14.8051429,14.7482 14.4005714,13.6188462 13.6708571,12.543 C13.6177143,12.4627385 13.5365714,12.3545846 13.4548571,12.2743231 L12.4828571,11.9515692 L10.972,12.4086615 L10.0805714,13.4839385 C10.2965714,12.9192615 10.5125714,12.3545846 10.756,11.7899077 C10.2428571,11.3863231 9.75714286,11.2252308 9.24342857,11.3054923 C8.62228571,12.6773385 8.00171429,14.0491846 7.38171429,15.4204615 C7.67828571,16.2276308 8.32571429,16.4428 8.89257143,15.9857077 C8.92,15.9583846 9.05542857,15.5821231 9.08171429,15.5280462 C8.73085714,17.1418154 8.65028571,18.7288308 9.00057143,19.5086769 L6.49028571,28.1416308 Z" id="Fill-7"></path>
                    <path d="M23.7419429,8.21326 C23.7419429,9.20827538 24.5510857,9.98812154 25.5236571,9.98812154 C26.4950857,9.98812154 27.3048,9.20827538 27.3048,8.21326 C27.3048,7.24499846 26.4950857,6.43839846 25.5236571,6.43839846 C24.5510857,6.43839846 23.7419429,7.24499846 23.7419429,8.21326" id="Fill-9"></path>
                    <path d="M23.7687429,17.2492292 C23.9847429,16.52346 24.3898857,15.7697985 24.9836,15.0440292 C25.1458857,15.3132754 25.3344571,15.5819523 25.5236,15.8779523 C25.5236,15.8779523 25.5504571,15.9047062 25.5504571,15.9320292 L28.7093143,17.5184754 L26.0093143,21.9829523 L25.5236,20.9611831 L23.7687429,17.2492292 Z M17.2618857,27.8727831 L17.8556,28.3833831 L18.5310286,28.94806 L22.3378857,21.0146908 L23.9310286,22.9238908 L24.3361714,24.9139215 L22.3373143,28.4642138 L23.3093143,28.5450446 L24.6053143,26.4736138 L25.1727429,28.8137215 L25.5236,28.73346 L27.1704571,28.3031215 L26.2521714,23.5432138 L29.5727429,17.8953062 L30.1401714,18.0831523 L30.6527429,17.0613831 L26.9001714,14.5061062 C26.4687429,13.2685985 26.0373143,12.0043369 25.6041714,10.7673985 C25.5778857,10.7406446 25.5504571,10.71446 25.5236,10.6871369 C25.0104571,10.1753985 24.4973143,9.93347538 24.0116,9.93347538 C22.6618857,9.90729077 21.8521714,10.9028754 21.2310286,12.32766 L22.2830286,9.45019846 C21.9601714,9.07393692 21.4738857,8.85819846 20.8527429,8.83144462 C20.0698857,10.4719677 19.4224571,12.1124908 18.6658857,13.7797677 C18.9087429,14.3985215 19.3681714,14.6671985 20.1784571,14.3985215 C20.3670286,14.3444446 20.5830286,13.8605985 20.3396,14.3444446 C20.0961714,15.0981062 19.8270286,15.9047062 19.7458857,16.6304754 C19.7733143,17.2492292 19.9344571,17.7865831 20.2316,18.2174908 L17.2618857,27.8727831 Z" id="Fill-11"></path>
                    <path d="M18.5712,1.70769231 C9.26148571,1.70769231 1.71405714,9.22609231 1.71405714,18.5 C1.71405714,27.7739077 9.26148571,35.2923077 18.5712,35.2923077 C27.8814857,35.2923077 35.4283429,27.7739077 35.4283429,18.5 C35.4186286,9.23007692 27.8774857,1.71736923 18.5712,1.70769231 M18.5712,37 C8.31462857,37 -0.000228571429,28.7171231 -0.000228571429,18.5 C-0.000228571429,8.28287692 8.31462857,0 18.5712,0 C28.8277714,0 37.1426286,8.28287692 37.1426286,18.5 C37.1306286,28.712 28.8226286,36.9874769 18.5712,37" id="Fill-43"></path>
                </g>
            </g>
        </g>
    </g>
</svg>