
<svg width="39px" height="37px" viewBox="0 0 39 37" version="1.1" xmlns="http://www.w3.org/2000/svg" xmlns:xlink="http://www.w3.org/1999/xlink">
    <g id="Page-1" stroke="none" stroke-width="1" fill="none" fill-rule="evenodd">
        <g id="shop--about" transform="translate(-418.000000, -587.000000)" fill="#000000">
            <g id="header" transform="translate(0.000000, 81.000000)">
                <g id="marathon" transform="translate(418.333333, 506.000000)">
                    <path d="M19.1426286,1.70769231 C9.83291429,1.70769231 2.28548571,9.22609231 2.28548571,18.5 C2.28548571,27.7739077 9.83291429,35.2923077 19.1426286,35.2923077 C28.4529143,35.2923077 35.9997714,27.7739077 35.9997714,18.5 C35.9900571,9.23007692 28.4489143,1.71736923 19.1426286,1.70769231 M19.1426286,37 C8.88605714,37 0.5712,28.7171231 0.5712,18.5 C0.5712,8.28287692 8.88605714,0 19.1426286,0 C29.3992,0 37.7140571,8.28287692 37.7140571,18.5 C37.7020571,28.712 29.3940571,36.9874769 19.1426286,37" id="Fill-52"></path>
                    <path d="M30.4925143,11.2951323 C30.4799429,10.8129938 29.9142286,10.2750708 29.3325143,10.3929015 C29.1096571,10.4373015 28.8393714,10.5443169 28.6856571,10.7685938 L27.8296571,12.0009785 L26.9845143,13.2322246 C26.9845143,13.2322246 25.7868,12.0744092 25.4130857,11.7732862 C25.0393714,11.4721631 24.6685143,11.2273938 24.1953714,10.9507477 C23.7228,10.6741015 22.4993714,10.3769631 21.9753714,10.4435631 L21.6353714,10.4930862 L18.2913714,10.9752246 C17.7073714,11.0873631 17.4010857,11.4932246 17.2816571,11.7044092 L15.8273714,14.2608246 C15.6913714,14.5152708 15.5879429,14.7611785 15.6382286,15.0218862 C15.7296571,15.5051631 16.2142286,15.8723169 16.7245143,15.7846554 C16.9988,15.7379785 17.3176571,15.5569631 17.5308,15.2404708 L18.7999429,13.1849785 L20.2702286,12.9720862 L18.5210857,16.9276708 C17.5485143,18.6319477 19.0456571,19.71064 19.5782286,20.2411631 L19.7650857,20.4022554 L22.5245143,22.7833477 L20.5628,26.1156246 C20.4570857,26.2545169 20.4216571,26.4657015 20.4216571,26.6421631 C20.4216571,27.3081631 20.9513714,27.8341323 21.5839429,27.8341323 C22.0770857,27.8341323 22.4639429,27.5535015 22.6753714,27.1669938 L23.1839429,26.2789938 L24.8439429,23.3821785 C25.4005143,22.2738862 24.5993714,21.3369323 24.5993714,21.3369323 L21.7822286,18.5306246 L22.5336571,17.2373323 L24.2919429,14.2363477 L26.5713714,15.5706246 C26.5713714,15.5706246 27.4645143,16.2127169 28.1302286,15.2393323 L28.9262286,14.0832246 L30.2045143,12.2024862 C30.2079429,12.1979323 30.2096571,12.1945169 30.2119429,12.1899631 C30.4742286,11.7869477 30.4982286,11.5353477 30.4925143,11.2951323" id="Fill-56"></path>
                    <path d="M19.2849143,20.8808646 L19.0986286,20.7192031 C18.8472,20.4693108 18.3849143,20.0964646 18.0649143,19.5949723 C18.0523429,19.5756185 15.6689143,23.5488492 15.6689143,23.5488492 L13.0180571,26.3699569 C12.8849143,26.4820954 12.8032,26.6801877 12.7643429,26.8515262 C12.6169143,27.5021569 13.0169143,28.1305877 13.6346286,28.26948 C14.1152,28.3776338 14.5546286,28.1892185 14.8466286,27.8579262 L15.5392,27.1036954 L17.7980571,24.6423415 C18.3837714,23.9296646 19.5266286,22.3358185 20.0757714,21.5628031 L19.2849143,20.8808646 Z" id="Fill-58"></path>
                    <path d="M24.1052571,6.75073538 C23.1104,6.68015077 22.2098286,7.38827385 22.1389714,8.30872 C22.0441143,9.22916615 22.8024,10.0556892 23.8212571,10.1268431 C24.8401143,10.1974277 25.7166857,9.51321231 25.7875429,8.56828923 C25.8589714,7.62393538 25.1241143,6.82188923 24.1052571,6.75073538" id="Fill-60"></path>
                    <path d="M28.6487429,30.2542738 L6.65045714,30.2542738 C6.2556,30.2542738 5.93617143,29.9355046 5.93617143,29.5427354 C5.93617143,29.1499662 6.2556,28.8311969 6.65045714,28.8311969 L28.6487429,28.8311969 C29.0430286,28.8311969 29.3630286,29.1499662 29.3630286,29.5427354 C29.3630286,29.9355046 29.0430286,30.2542738 28.6487429,30.2542738" id="Fill-62"></path>
                    <path d="M31.6353714,25.4007846 L25.9205143,25.4007846 C25.5262286,25.4007846 25.2062286,25.0820154 25.2062286,24.6892462 C25.2062286,24.2964769 25.5262286,23.9777077 25.9205143,23.9777077 L31.6353714,23.9777077 C32.0296571,23.9777077 32.3496571,24.2964769 32.3496571,24.6892462 C32.3496571,25.0820154 32.0296571,25.4007846 31.6353714,25.4007846" id="Fill-64"></path>
                    <path d="M12.4936571,25.4007846 L9.63708571,25.4007846 C9.2428,25.4007846 8.9228,25.0820154 8.9228,24.6892462 C8.9228,24.2964769 9.2428,23.9777077 9.63708571,23.9777077 L12.4936571,23.9777077 C12.8879429,23.9777077 13.2079429,24.2964769 13.2079429,24.6892462 C13.2079429,25.0820154 12.8879429,25.4007846 12.4936571,25.4007846" id="Fill-66"></path>
                </g>
            </g>
        </g>
    </g>
</svg>