
<svg width="39px" height="37px" viewBox="0 0 39 37" version="1.1" xmlns="http://www.w3.org/2000/svg" xmlns:xlink="http://www.w3.org/1999/xlink">
    <g id="Page-1" stroke="none" stroke-width="1" fill="none" fill-rule="evenodd">
        <g id="shop--about" transform="translate(-350.000000, -587.000000)" fill="#000000">
            <g id="header" transform="translate(0.000000, 81.000000)">
                <g id="sports" transform="translate(350.666667, 506.000000)">
                    <path d="M18.8569143,1.70769231 C9.5472,1.70769231 1.99977143,9.22609231 1.99977143,18.5 C1.99977143,27.7739077 9.5472,35.2923077 18.8569143,35.2923077 C28.1672,35.2923077 35.7140571,27.7739077 35.7140571,18.5 C35.7043429,9.23007692 28.1632,1.71736923 18.8569143,1.70769231 M18.8569143,37 C8.60034286,37 0.285485714,28.7171231 0.285485714,18.5 C0.285485714,8.28287692 8.60034286,0 18.8569143,0 C29.1134857,0 37.4283429,8.28287692 37.4283429,18.5 C37.4163429,28.712 29.1083429,36.9874769 18.8569143,37" id="Fill-31"></path>
                    <path d="M19.0572571,9.93319077 C14.2629714,9.92066769 10.3669714,13.78176 10.3544,18.5564677 C10.3418286,23.3323138 14.2172571,27.2133292 19.0115429,27.2264215 C23.8052571,27.2383754 27.7018286,23.3778523 27.7138286,18.6020062 L27.7138286,18.5741138 C27.7052571,13.8119292 23.8372571,9.95197538 19.0572571,9.93319077 M19.0572571,28.9284215 C13.3166857,28.9409446 8.65268571,24.3153754 8.64011429,18.5968831 C8.62754286,12.8783908 13.2709714,8.23232923 19.0115429,8.21980615 C24.7521143,8.20728308 29.4161143,12.8328523 29.4281143,18.5513446 L29.4281143,18.5741138 C29.4224,24.2812215 24.7858286,28.9096369 19.0572571,28.9284215" id="Fill-33"></path>
                    <path d="M13.2341714,24.1867292 L11.5198857,24.1867292 C11.6170286,12.8413908 23.7027429,9.95596 23.8227429,9.95596 L24.2056,11.6238062 C22.2278857,12.1514831 20.3564571,13.0161446 18.6747429,14.1796523 C15.0970286,16.6444215 13.2690286,20.01996 13.2341714,24.1867292" id="Fill-35"></path>
                    <polygon id="Fill-37" points="11.9512 13.4374892 13.1020571 12.17152 26.1592 23.9534585 25.0083429 25.2188585"></polygon>
                    <path d="M18.0968571,28.1996923 C16.4345714,20.2873846 10.1825714,19.092 9.91457143,19.0464615 L10.2054286,17.3672308 C10.5197143,17.4184615 17.8631429,18.7618462 19.7717143,27.8467692 L18.0968571,28.1996923 Z" id="Fill-39"></path>
                    <path d="M28.4172,17.7200969 C19.1086286,17.3102508 16.5886286,10.3200969 16.4857714,10.00702 L18.1086286,9.43778923 C18.1943429,9.69394308 20.3943429,15.6429738 28.4914857,16.00102 L28.4172,17.7200969 Z" id="Fill-41"></path>
                </g>
            </g>
        </g>
    </g>
</svg>