
<svg width="38px" height="37px" viewBox="0 0 38 37" version="1.1" xmlns="http://www.w3.org/2000/svg" xmlns:xlink="http://www.w3.org/1999/xlink">
    <g id="Page-1" stroke="none" stroke-width="1" fill="none" fill-rule="evenodd">
        <g id="shop--about" transform="translate(-148.000000, -587.000000)" fill="#000000">
            <g id="header" transform="translate(0.000000, 81.000000)">
                <g id="walking" transform="translate(147.666667, 506.000000)">
                    <path d="M19.8212,11.1083108 C20.8600571,11.1806031 21.7543429,10.4827262 21.8269143,9.52015692 C21.8994857,8.55758769 21.1503429,7.73903385 20.1114857,7.66674154 C19.0960571,7.59444923 18.1783429,8.31680308 18.1057714,9.25489538 C18.0092,10.1941262 18.7829143,11.0365877 19.8212,11.1083108" id="Fill-1"></path>
                    <path d="M18.2269143,11.8065292 C18.5892,11.5657446 19.0480571,11.3972523 19.5314857,11.4456369 C20.1600571,11.4934523 20.6909143,11.8549138 21.0292,12.3120062 L22.9143429,15.7780523 L25.4754857,17.41516 C25.6926286,17.5591754 25.8377714,17.8238677 25.8137714,18.08856 C25.7652,18.5223138 25.3789143,18.8348215 24.9194857,18.8109138 C24.7749143,18.8109138 24.6537714,18.7386215 24.5332,18.6908062 L21.7303429,16.9091138 C21.6577714,16.8373908 21.5852,16.7650985 21.5126286,16.6688985 L20.8120571,15.3687754 L19.9663429,18.8348215 L23.2766286,22.46936 C23.3492,22.5894677 23.3977714,22.7101446 23.4217714,22.85416 L24.3154857,27.23496 L24.3154857,27.4757446 C24.2669143,28.1258062 23.6634857,28.6073754 22.9623429,28.5589908 C22.3823429,28.5111754 21.9480571,28.1258062 21.8269143,27.6203292 L20.9812,23.5286985 L18.2994857,20.7844369 L17.6709143,23.4564062 C17.6463429,23.5765138 17.4772,23.8417754 17.4292,23.9379754 L14.8194857,27.9573138 C14.5537714,28.3182062 14.1434857,28.5589908 13.6360571,28.5350831 C12.9349143,28.4866985 12.4040571,27.9328369 12.4760571,27.2827754 C12.5006286,27.0909446 12.5726286,26.8985446 12.6452,26.7778677 L15.0372,23.0471292 L17.0429143,14.8149138 L15.7383429,15.8025292 L15.0372,18.7386215 C14.9406286,19.1234215 14.5777714,19.4125908 14.1434857,19.3881138 C13.6840571,19.3642062 13.3217714,18.9794062 13.3703429,18.5462215 C13.3703429,18.5223138 13.3703429,18.4739292 13.3943429,18.4500215 L14.2154857,15.0317908 C14.2640571,14.8872062 14.3606286,14.7670985 14.4812,14.6464215 L18.2269143,11.8065292 Z" id="Fill-3"></path>
                    <path d="M19.1426286,1.70769231 C9.83291429,1.70769231 2.28548571,9.22609231 2.28548571,18.5 C2.28548571,27.7739077 9.83291429,35.2923077 19.1426286,35.2923077 C28.4529143,35.2923077 35.9997714,27.7739077 35.9997714,18.5 C35.9900571,9.23007692 28.4489143,1.71736923 19.1426286,1.70769231 M19.1426286,37 C8.88605714,37 0.5712,28.7171231 0.5712,18.5 C0.5712,8.28287692 8.88605714,0 19.1426286,0 C29.3992,0 37.7140571,8.28287692 37.7140571,18.5 C37.7020571,28.712 29.3940571,36.9874769 19.1426286,37" id="Fill-47"></path>
                </g>
            </g>
        </g>
    </g>
</svg>