
<svg width="20px" height="17px" viewBox="0 0 20 17" version="1.1" xmlns="http://www.w3.org/2000/svg" xmlns:xlink="http://www.w3.org/1999/xlink">
    <defs>
        <polygon id="path-1" points="0 0.0001 19.973 0.0001 19.973 17.009 0 17.009"></polygon>
    </defs>
    <g id="Page-1" stroke="none" stroke-width="1" fill="none" fill-rule="evenodd">
        <g id="Splash-Page" transform="translate(-264.000000, -8.000000)">
            <g id="Promo-header" transform="translate(0.000000, 1.000000)">
                <g id="Page-1" transform="translate(264.000000, 7.000000)">
                    <mask id="mask-2" fill="white">
                        <use xlink:href="#path-1"></use>
                    </mask>
                    <g id="Clip-2"></g>
                    <path d="M17.5038,11.447 L10.6828,15.873 L10.6828,8.755 L17.5038,4.886 L17.5038,11.447 Z M2.6568,12.023 L2.6568,9.406 L8.3028,12.437 C8.3618,12.469 8.4268,12.485 8.4928,12.485 C8.5328,12.485 8.5738,12.479 8.6128,12.467 C8.7158,12.434 8.8018,12.362 8.8508,12.265 L9.8798,10.238 L9.8798,15.937 L2.6568,12.023 Z M2.3788,4.891 L9.7638,8.694 L8.3208,11.536 L0.9438,7.575 L2.3788,4.891 Z M19.9058,6.247 L18.3228,3.971 C18.3168,3.962 18.3078,3.955 18.3008,3.947 C18.2908,3.934 18.2808,3.921 18.2688,3.91 C18.2648,3.906 18.2608,3.901 18.2558,3.897 C18.2458,3.888 18.2348,3.883 18.2248,3.875 C18.2148,3.869 18.2068,3.86 18.1968,3.854 C18.1908,3.851 18.1858,3.85 18.1798,3.847 C18.1788,3.846 18.1778,3.845 18.1758,3.844 C18.1718,3.842 18.1688,3.839 18.1648,3.837 L10.0728,0.037 C10.0568,0.03 10.0408,0.025 10.0248,0.02 C10.0218,0.019 10.0178,0.017 10.0138,0.016 C10.0048,0.013 9.9958,0.011 9.9868,0.01 C9.9798,0.008 9.9718,0.007 9.9648,0.005 C9.9518,0.003 9.9388,0.002 9.9258,0.001 C9.9188,0.001 9.9128,0.001 9.9058,0.001 C9.8958,0.001 9.8868,0 9.8768,0 C9.8768,0 9.8758,0 9.8748,0 C9.8568,0.002 9.8378,0.005 9.8208,0.008 C9.8178,0.009 9.8168,0.009 9.8148,0.009 C9.8058,0.011 9.7978,0.014 9.7898,0.017 C9.7828,0.019 9.7758,0.021 9.7698,0.023 C9.7548,0.028 9.7418,0.034 9.7288,0.04 C9.7258,0.041 9.7218,0.042 9.7178,0.044 L2.0268,3.996 C2.0258,3.997 2.0258,3.997 2.0248,3.998 C2.0198,4.001 2.0148,4.004 2.0098,4.007 C2.0068,4.008 2.0038,4.009 2.0018,4.011 C1.9968,4.014 1.9928,4.018 1.9878,4.021 C1.9688,4.034 1.9508,4.049 1.9338,4.065 C1.9328,4.066 1.9308,4.067 1.9298,4.068 C1.9288,4.069 1.9278,4.071 1.9268,4.072 C1.9048,4.094 1.8858,4.118 1.8688,4.146 C1.8678,4.147 1.8658,4.149 1.8648,4.151 C1.8648,4.151 1.8648,4.152 1.8648,4.152 C1.8618,4.157 1.8588,4.16 1.8568,4.164 L0.0468,7.55 C-0.0572,7.745 0.0168,7.988 0.2118,8.093 L1.8548,8.975 L1.8548,11.819 L1.8548,12.263 C1.8548,12.411 1.9138,12.547 2.0438,12.617 L10.1238,16.961 C10.1438,16.972 10.1598,16.978 10.1818,16.985 C10.1918,16.989 10.1968,16.994 10.2078,16.997 C10.2398,17.005 10.2708,17.009 10.3038,17.009 C10.3408,17.009 10.3768,17.004 10.4118,16.994 C10.4238,16.99 10.4338,16.984 10.4448,16.979 C10.4658,16.971 10.4878,16.964 10.5078,16.952 C10.5108,16.951 10.5118,16.949 10.5138,16.948 C10.5158,16.947 10.5178,16.947 10.5188,16.945 L18.2108,12.004 C18.2128,12.002 18.2138,12 18.2158,11.999 C18.2418,11.982 18.2648,11.963 18.2858,11.941 C18.2888,11.937 18.2918,11.933 18.2948,11.93 C18.3118,11.911 18.3258,11.89 18.3388,11.868 C18.3428,11.86 18.3478,11.852 18.3518,11.844 C18.3608,11.824 18.3698,11.804 18.3758,11.782 C18.3788,11.774 18.3368,11.766 18.3388,11.758 C18.3458,11.728 18.3068,11.698 18.3068,11.666 L18.3068,6.342 L19.3558,6.836 C19.4118,6.864 19.4948,6.877 19.5548,6.877 C19.6688,6.877 19.7918,6.828 19.8698,6.738 C19.9888,6.599 20.0108,6.397 19.9058,6.247 Z" id="Fill-1" fill="#000000" mask="url(#mask-2)"></path>
                </g>
            </g>
        </g>
    </g>
</svg>